<svg version="1.1" id="Layer_1" xmlns="http://www.w3.org/2000/svg" xmlns:xlink="http://www.w3.org/1999/xlink" x="0px" y="0px"
	 width="100%" viewBox="0 0 565 473" enable-background="new 0 0 565 473" xml:space="preserve">
<path fill="#FEFEFE" opacity="1.000000" stroke="none" 
	d="
M566.000000,182.000000 
	C566.000000,279.643280 566.000000,376.786530 566.000000,473.964905 
	C377.735413,473.964905 189.470840,473.964905 1.103124,473.964905 
	C1.103124,316.440094 1.103124,158.880127 1.103124,1.160074 
	C189.333221,1.160074 377.666595,1.160074 566.000000,1.160074 
	C566.000000,61.195786 566.000000,121.347893 566.000000,182.000000 
M319.283600,445.774597 
	C315.719269,439.789124 311.494812,439.100861 306.926056,444.310181 
	C313.591034,442.775299 312.852936,446.722412 312.579163,449.413879 
	C310.353027,451.476013 308.925018,452.798798 307.497009,454.121552 
	C309.092072,454.652832 310.687103,455.184143 313.442596,456.101959 
	C311.591187,458.878296 309.885620,461.435913 307.779816,464.593750 
	C309.770691,464.412262 311.048401,464.295776 312.743713,464.141235 
	C312.743713,466.626556 312.743713,468.660614 312.743713,470.716705 
	C314.804993,470.222076 316.493011,469.817017 318.606445,469.932159 
	C319.867706,470.313843 321.128967,470.695526 322.734314,471.181335 
	C322.870483,468.611450 322.964844,466.830200 323.716492,465.074890 
	C327.592804,464.216583 331.469147,463.358307 335.872986,462.383209 
	C335.872986,455.904297 335.872986,449.560883 335.872986,443.032867 
	C329.363129,440.537659 325.800354,441.378418 324.122253,445.893921 
	C322.727509,445.960236 321.332733,446.026550 319.283600,445.774597 
M253.865005,441.617004 
	C251.242126,444.015900 248.619232,446.414795 245.996338,448.813721 
	C246.237396,449.196655 246.478455,449.579590 246.719513,449.962524 
	C255.735870,445.475800 264.571381,445.520050 273.265198,451.232635 
	C276.002289,447.884735 278.494476,444.836395 281.724731,442.136780 
	C283.683777,444.790466 285.353455,447.746063 287.700134,449.995270 
	C289.358093,451.584229 291.935211,453.168091 294.179901,450.287445 
	C296.491333,447.321106 298.737579,444.303986 301.923187,440.109863 
	C294.148163,442.988403 292.570587,438.440002 290.538910,433.832855 
	C287.876526,427.795258 284.943512,421.824066 281.495178,416.212524 
	C280.149292,414.022247 279.604248,412.700500 281.055054,410.606262 
	C282.091980,409.109497 282.915894,407.450348 283.708832,405.803009 
	C284.790894,403.554993 285.902008,402.347473 288.979797,402.690735 
	C294.646759,403.322693 298.557190,399.086182 299.209717,393.036011 
	C295.584778,392.752106 291.942169,392.466827 287.586884,392.125732 
	C283.933960,398.667908 279.889099,405.911987 275.234833,414.247467 
	C275.234833,406.199860 275.234833,399.690918 275.234833,393.327179 
	C273.019745,394.160461 270.522675,395.099792 267.688904,395.464478 
	C267.924286,394.693939 268.159698,393.923431 268.333069,393.355988 
	C263.260559,392.522125 258.330200,391.315735 253.342804,390.993835 
	C247.363083,390.607910 243.408371,394.596375 243.315125,399.613312 
	C246.012238,399.462311 248.987305,398.540314 251.434402,399.305908 
	C257.781250,401.291534 263.222473,400.510376 268.844269,396.482056 
	C265.105103,401.439453 265.104980,407.169403 265.228058,413.008972 
	C265.387054,420.551727 265.266815,428.100342 265.266815,435.718384 
	C270.906952,434.644897 273.802338,430.045166 275.246582,424.011658 
	C275.728973,424.014313 276.211334,424.016937 276.693726,424.019592 
	C278.152496,430.003052 279.611237,435.986511 280.519867,441.322296 
	C272.884888,437.976898 265.155640,436.669617 257.142273,440.085419 
	C256.844330,440.212433 256.136047,439.376892 256.117004,438.461578 
	C259.958008,436.964569 261.878815,434.026550 261.923523,430.032532 
	C262.026703,420.818573 261.956268,411.602631 261.956268,402.157349 
	C255.231323,404.351257 251.816147,408.590149 252.319427,413.725739 
	C249.023209,416.680542 246.143295,418.367584 244.711945,420.879913 
	C243.849854,422.393036 245.242172,425.190552 245.674194,427.719879 
	C252.033295,424.636047 252.625488,424.946777 252.531097,430.771790 
	C252.481689,433.821106 252.061646,436.864410 251.797348,440.050537 
	C252.298965,440.250671 253.197891,440.609344 253.865005,441.617004 
M464.339478,355.224945 
	C464.076111,355.179199 463.812744,355.133484 463.601776,354.182190 
	C463.026184,350.923187 462.450592,347.664185 461.875000,344.405182 
	C458.314514,345.372742 454.605194,345.994751 451.250488,347.439941 
	C449.298065,348.281036 447.354126,350.154968 446.377899,352.061554 
	C443.288696,358.095184 440.673431,364.370605 437.843536,370.538147 
	C435.307159,376.066040 433.370728,381.657440 428.920563,386.428802 
	C418.894165,397.178894 405.713287,402.114471 393.121124,408.462280 
	C383.277344,413.424561 374.067810,419.679535 364.742950,425.621399 
	C360.330353,428.433105 363.736328,431.406555 365.342560,434.050476 
	C367.071777,436.896820 369.251099,436.319244 371.677704,434.658447 
	C378.360809,430.084473 384.737305,424.805786 391.971252,421.344543 
	C409.162506,413.119019 427.233704,408.750183 446.590118,411.654175 
	C458.375153,413.422272 469.488434,411.628754 478.629181,403.078186 
	C482.298309,399.645966 481.945862,397.057251 477.212616,395.473022 
	C473.463104,394.218018 469.418823,393.870087 465.544983,392.952301 
	C462.130554,392.143311 458.770905,391.103058 455.387024,390.164917 
	C455.365387,389.691193 455.343719,389.217438 455.322052,388.743713 
	C456.892609,387.651581 458.320496,386.161316 460.059174,385.538147 
	C466.616699,383.187836 473.146576,379.915710 479.922302,379.191132 
	C494.978394,377.581085 507.032410,371.123901 517.120850,360.204651 
	C519.360168,357.780945 521.805786,355.326141 524.629700,353.715759 
	C528.963074,351.244537 530.365234,348.066559 528.572571,342.240051 
	C518.982178,343.773987 509.228821,345.333984 499.475494,346.893982 
	C499.246521,346.408112 499.017578,345.922272 498.788605,345.436401 
	C505.667450,340.956238 512.309509,336.046478 519.479553,332.094635 
	C530.781616,325.865295 540.891418,319.033783 545.007324,305.699707 
	C548.190125,295.388458 552.526733,285.427368 550.871887,274.095734 
	C546.315002,272.603455 543.135681,275.408752 540.920776,278.168030 
	C535.347046,285.111450 530.416138,292.570526 525.218933,299.816803 
	C523.890442,301.669128 522.529968,303.498566 521.184204,305.338531 
	C520.726685,305.062347 520.269165,304.786133 519.811584,304.509949 
	C520.724609,302.168762 521.696045,299.848450 522.540649,297.482849 
	C526.509338,286.367432 530.667419,275.388397 538.246582,266.036102 
	C544.592590,258.205444 549.967896,249.554871 551.136108,239.437836 
	C552.657471,226.262619 553.075195,212.956497 553.783264,199.696854 
	C553.845215,198.535919 552.758118,196.590210 551.807495,196.297073 
	C550.808167,195.988907 548.941589,196.895508 548.124573,197.847031 
	C541.783508,205.232132 538.278625,213.756271 537.200684,223.538162 
	C536.145020,233.117065 534.254944,242.607086 532.610779,252.115295 
	C532.302124,253.900024 531.426270,255.586670 530.812134,257.318573 
	C530.347534,257.213898 529.882874,257.109253 529.418274,257.004608 
	C529.418274,255.400848 529.242432,253.774490 529.445129,252.196777 
	C531.756226,234.209610 533.331970,216.078766 536.720032,198.294159 
	C539.621948,183.061615 540.485168,168.319016 535.549438,153.490280 
	C534.551575,150.492279 534.009949,147.301056 532.686829,144.465469 
	C531.589111,142.113083 529.650757,140.152954 528.084778,138.019058 
	C526.035645,139.753342 523.813660,141.330154 522.021118,143.298126 
	C521.287109,144.103989 521.310425,145.751358 521.282837,147.022308 
	C521.174377,152.016998 521.182861,157.014221 520.569580,161.978271 
	C520.376831,161.989487 520.184082,162.000717 519.783997,161.214172 
	C518.757568,151.458740 517.702576,141.706192 516.712830,131.947037 
	C515.725464,122.210808 515.849854,112.175087 510.015198,103.646790 
	C506.566772,98.606361 502.879242,93.705856 498.965668,89.021049 
	C497.709808,87.517708 494.636078,85.620773 493.712524,86.160408 
	C491.931396,87.201118 490.746277,89.726204 489.978607,91.873428 
	C489.468658,93.299698 489.849731,95.211159 490.284821,96.779831 
	C492.148743,103.499565 494.241882,110.155617 496.115723,116.872749 
	C496.711639,119.009033 496.887146,121.262596 497.334259,123.936417 
	C493.544861,118.783356 490.410156,114.160233 486.836243,109.906082 
	C485.907013,108.799957 483.296539,108.075371 482.025269,108.586304 
	C480.828522,109.067276 480.035950,111.337456 479.699921,112.952484 
	C479.374908,114.514397 479.807037,116.250542 479.995789,117.899956 
	C481.153656,128.018723 486.404022,136.283630 492.010895,144.392181 
	C493.411743,146.418030 494.697449,148.523514 496.036041,150.592407 
	C492.844574,149.546005 490.474243,147.790314 488.031982,146.141159 
	C485.561249,144.472733 483.262573,144.085129 482.560455,147.839645 
	C481.247253,154.861557 486.937958,167.427582 493.087646,171.381378 
	C500.143097,175.917572 506.164917,181.464172 509.944031,189.454941 
	C509.601715,189.701279 509.259399,189.947632 508.345398,189.833069 
	C504.155548,186.624161 501.563110,180.360458 494.533447,182.301788 
	C494.003754,196.179276 502.019958,206.431793 509.167572,217.801392 
	C506.531891,217.500336 504.972870,217.322250 503.066193,217.104462 
	C500.758240,226.128738 500.233826,235.236267 502.446991,243.871964 
	C504.989563,253.793030 509.113342,263.331268 512.866333,272.911987 
	C515.438354,279.477997 515.154907,285.441925 511.092712,289.582214 
	C510.549744,286.753265 510.280914,284.091583 509.508728,281.584991 
	C507.761993,275.914673 506.107819,270.167145 503.679443,264.783234 
	C502.878876,263.008301 499.543060,261.010559 497.865326,261.379974 
	C496.171051,261.753052 494.053040,264.872498 493.930695,266.898132 
	C493.423187,275.297821 493.143433,283.768188 493.681641,292.154755 
	C494.061066,298.067688 496.488953,303.840759 496.952209,309.758453 
	C497.956848,322.591553 492.289886,333.691315 486.598938,344.661255 
	C486.282959,345.270416 485.253357,345.509430 483.499756,346.543549 
	C488.632660,335.315979 486.511749,324.595093 486.778595,314.090027 
	C486.820740,312.430176 485.262146,310.729675 484.443695,309.047974 
	C482.838165,309.848969 480.934387,310.330658 479.677460,311.504822 
	C473.408112,317.361145 471.117096,325.058685 469.722229,333.258484 
	C468.469604,340.622101 466.688934,347.895905 464.339478,355.224945 
M56.068825,217.287354 
	C57.966068,214.589172 59.975185,211.961929 61.739471,209.179443 
	C66.931061,200.991684 71.212715,192.477127 70.724388,181.048752 
	C67.675018,182.248306 65.020950,182.876160 62.848465,184.260040 
	C60.517502,185.744919 58.639286,187.940552 56.563488,189.826004 
	C56.210320,189.474686 55.857151,189.123367 55.503979,188.772049 
	C58.476009,183.630264 61.353119,178.285309 66.916840,175.318222 
	C77.134811,169.869080 81.922974,161.168762 82.697540,149.976486 
	C82.799438,148.504105 82.229622,145.942673 81.406845,145.684708 
	C80.054710,145.260773 78.162926,146.129059 76.642479,146.785553 
	C74.948448,147.516983 73.415123,148.620636 71.811836,149.562256 
	C71.465668,149.212387 71.119499,148.862534 70.773331,148.512665 
	C72.688782,145.569824 74.620560,142.637482 76.516541,139.682144 
	C81.705490,131.593933 85.772377,123.075768 85.653404,113.204094 
	C85.634369,111.625198 84.633125,109.070892 83.538528,108.731140 
	C82.020546,108.259972 79.296532,108.873756 78.298355,110.049675 
	C75.211868,113.685814 72.722923,117.825768 69.948196,121.731918 
	C69.063362,122.977554 68.010529,124.103851 66.538803,125.884628 
	C69.678474,114.999649 72.876801,105.308136 75.074799,95.394829 
	C75.691742,92.612343 74.287308,88.085693 72.171928,86.303879 
	C69.166092,83.771996 67.259125,87.874901 65.281616,89.883453 
	C64.931129,90.239433 64.515770,90.543724 64.218811,90.938431 
	C57.832932,99.426353 51.062084,107.668976 49.920643,118.898056 
	C48.423351,133.627853 46.699837,148.334671 44.472614,163.040802 
	C44.076553,162.989655 43.680489,162.938507 43.290081,161.965286 
	C43.299892,156.799759 43.526669,151.621155 43.216530,146.474915 
	C43.085957,144.308167 42.270313,141.873001 40.978004,140.151474 
	C38.415958,136.738480 35.485516,137.135132 33.776951,141.062180 
	C32.391644,144.246231 31.658966,147.709427 30.554829,151.021469 
	C25.765186,165.388748 24.900412,179.772644 27.939959,194.812119 
	C31.167028,210.779449 32.901955,227.056641 35.023869,243.233246 
	C35.565094,247.359314 35.105061,251.616745 35.105061,255.813812 
	C33.613068,254.564392 32.895390,253.147598 32.621689,251.649673 
	C31.246700,244.124481 29.710789,236.613007 28.755196,229.030701 
	C27.436678,218.568680 26.411793,208.089294 18.479950,200.044540 
	C16.994743,198.538193 15.151275,197.385071 13.473140,196.068939 
	C12.384564,198.450027 10.275981,200.878281 10.383494,203.204086 
	C10.855890,213.423264 11.640144,223.654984 12.941506,233.801346 
	C14.247770,243.985931 17.986488,253.356766 23.837679,261.936584 
	C28.672483,269.026062 33.494286,276.212006 37.374557,283.837250 
	C40.518291,290.015167 42.253170,296.910034 44.612949,303.486877 
	C44.186569,303.690613 43.760189,303.894318 43.333809,304.098053 
	C42.759701,303.606934 42.037941,303.214417 41.634029,302.609650 
	C36.952557,295.599701 32.354008,288.534271 27.661549,281.531769 
	C24.073744,276.177704 18.628508,273.333862 14.198252,274.441772 
	C12.985459,286.098816 17.258844,296.537048 21.050087,307.240417 
	C24.441145,316.814026 30.607794,323.319366 39.178284,328.147736 
	C45.532043,331.727264 51.830803,335.427887 57.950138,339.389557 
	C60.737644,341.194214 63.032543,343.759766 65.550896,345.980164 
	C65.334755,346.237488 65.118614,346.494812 64.902473,346.752136 
	C55.394032,345.257477 45.885590,343.762817 36.377144,342.268158 
	C35.956680,342.895966 35.536221,343.523804 35.115757,344.151611 
	C36.243366,346.856079 36.738373,350.165009 38.627384,352.141937 
	C42.845787,356.556671 47.773933,360.290558 52.386822,364.331604 
	C60.351852,371.309265 68.859077,376.617798 79.856056,378.197174 
	C88.452690,379.431793 96.761726,382.810242 105.112831,385.502045 
	C106.932518,386.088593 108.387436,387.806793 110.010353,389.003845 
	C109.917740,389.542969 109.825127,390.082092 109.732513,390.621246 
	C103.450745,391.919189 97.094948,392.948517 90.924164,394.649170 
	C88.503357,395.316406 86.496948,397.487213 84.301826,398.973297 
	C85.993721,401.080078 87.388000,403.547638 89.428925,405.231354 
	C98.367111,412.605164 108.909584,412.897308 119.732079,411.553802 
	C140.106567,409.024628 159.065445,413.381256 176.718872,423.567627 
	C182.147949,426.700317 187.205627,430.474609 192.452454,433.926117 
	C194.954514,435.572052 197.348343,437.677979 200.080048,433.978027 
	C202.654221,430.491516 204.003906,427.326019 199.465363,424.480652 
	C191.335052,419.383484 183.362793,413.987732 174.953445,409.396362 
	C167.829391,405.506714 160.028336,402.873444 152.803787,399.147247 
	C143.815140,394.511200 136.040359,388.037140 131.132202,379.169159 
	C127.540344,372.679413 125.484001,365.338501 122.758606,358.370972 
	C120.564674,352.762115 116.990074,348.386230 111.566689,345.600586 
	C104.780914,342.115265 101.797348,343.853058 101.786369,351.338165 
	C101.785149,352.171326 101.779732,353.004456 101.142097,354.006012 
	C100.714661,354.055054 100.287224,354.104095 99.664124,353.421783 
	C98.827232,350.280487 97.990341,347.139221 97.521812,343.667816 
	C97.297249,343.113373 97.072678,342.558960 96.765709,341.219574 
	C96.569160,339.925690 96.372612,338.631805 96.501556,336.756317 
	C96.274597,336.172577 96.047638,335.588837 95.752129,334.197998 
	C94.741928,325.193817 91.503319,317.168640 85.081413,310.651184 
	C84.195099,309.751678 82.471367,308.929718 81.392662,309.180176 
	C80.340546,309.424500 79.243622,310.964813 78.845299,312.162048 
	C78.338020,313.686798 78.374184,315.442200 78.417267,317.091858 
	C78.657692,326.296997 78.971001,335.500214 79.256317,344.605621 
	C79.258675,344.606537 78.819733,344.579773 78.701813,344.371429 
	C77.474304,342.202026 76.145210,340.071716 75.133659,337.801605 
	C69.633041,325.457184 66.098373,313.123199 69.922119,299.177612 
	C72.206619,290.845856 72.115822,281.796783 72.496948,273.044159 
	C72.634476,269.885834 71.389282,266.502258 70.126358,263.493835 
	C68.833473,260.414062 65.936203,259.680878 63.825890,262.427704 
	C61.364674,265.631317 59.120117,269.263977 57.863708,273.067902 
	C56.062099,278.522430 55.239918,284.300507 53.770130,290.983795 
	C50.879578,284.999329 49.617596,280.003326 51.765141,274.643341 
	C54.608589,267.546448 57.589222,260.503296 60.348186,253.374084 
	C64.924057,241.549957 64.695465,229.486923 62.237125,216.263977 
	C60.001427,217.531647 58.538059,218.361389 56.498371,218.941528 
	C56.265148,218.602234 56.031925,218.262924 56.068825,217.287354 
M354.593170,106.523163 
	C354.821045,90.740341 349.859406,76.494850 340.210846,64.307663 
	C320.273621,39.124729 293.998657,29.601864 262.641327,36.176468 
	C212.206482,46.751011 187.736832,103.196968 216.360001,146.018280 
	C234.177353,172.673691 260.469696,182.126297 291.890503,178.106140 
	C326.655457,173.658112 354.598175,142.160049 354.593170,106.523163 
M123.508614,257.871918 
	C139.452286,249.801041 156.875992,246.859421 174.056625,242.890060 
	C185.160599,240.324631 196.516220,237.592239 206.737640,232.769714 
	C220.627594,226.216354 223.505447,207.809616 213.354141,197.812347 
	C211.507019,195.993256 208.882843,194.963196 205.673965,192.988266 
	C205.972504,195.061523 205.941238,195.719055 206.165833,196.272797 
	C209.470703,204.421280 208.517212,207.698273 200.508057,211.095001 
	C186.595551,216.995377 172.338440,220.079025 157.113159,213.654037 
	C153.544739,220.439819 146.811646,222.304291 139.930420,223.961075 
	C137.671356,224.504959 135.436127,225.188400 133.242828,225.958466 
	C117.884743,231.350723 104.746513,239.501282 99.514084,256.004852 
	C94.160789,272.889679 96.403564,289.356415 104.459587,304.930450 
	C111.627579,318.787750 123.687660,327.594757 136.853973,335.236755 
	C141.202560,337.760742 144.808701,339.763123 148.775391,334.846069 
	C149.854553,333.508362 151.774307,332.768616 153.415497,331.976715 
	C173.058197,322.498596 193.883423,320.230194 215.255630,322.606323 
	C220.732162,323.215210 226.585068,324.832764 231.165176,327.727295 
	C234.863480,330.064545 237.722504,334.680756 239.479492,338.899994 
	C241.716324,344.271484 239.098541,346.789032 233.407440,345.960419 
	C226.850098,345.005676 223.257492,348.972137 224.848816,355.371552 
	C224.989914,355.938965 224.867554,356.571869 224.867554,357.204376 
	C218.370773,356.492676 214.686356,351.460144 216.125427,344.733246 
	C216.584503,342.587280 218.349991,339.852722 220.197220,339.134094 
	C221.806351,338.508087 224.353195,340.405457 226.522507,341.067200 
	C228.011719,341.521423 229.563904,341.769196 231.087952,342.109253 
	C230.778717,340.395569 231.072830,338.057648 230.056610,337.075439 
	C225.465576,332.638031 217.190918,333.759796 214.133453,339.431702 
	C212.502777,342.456696 212.215210,346.205688 211.210846,350.051331 
	C209.290588,348.937378 206.952194,347.763153 204.807968,346.303680 
	C197.661346,341.439301 189.897003,340.918427 181.848022,343.088928 
	C176.781631,344.455139 174.287704,348.316864 173.496643,353.294159 
	C172.713745,358.220093 175.237961,361.649811 179.087479,364.175903 
	C184.001999,367.400818 191.643982,365.234528 193.462036,359.925873 
	C191.906418,360.649719 190.632309,361.367157 189.275024,361.851501 
	C184.607986,363.516998 179.500275,361.801697 177.971298,357.379669 
	C177.225571,355.222870 178.240417,352.457336 178.458328,349.967346 
	C180.828232,350.387604 183.636795,350.154755 185.464584,351.382202 
	C188.162460,353.194061 190.646500,355.870789 193.826309,353.841614 
	C195.558182,352.736450 196.150879,349.846161 197.613892,347.089111 
	C199.218628,347.875854 201.704300,348.742767 203.784607,350.191711 
	C207.467133,352.756622 210.829636,355.776001 214.456100,358.427338 
	C225.494675,366.497650 238.688019,362.690613 243.134659,349.824738 
	C244.386612,346.202301 244.768387,341.847595 244.119034,338.074890 
	C241.423096,322.411682 231.357635,312.325714 217.439865,306.083618 
	C193.938126,295.543182 170.721054,298.424072 147.952454,308.842987 
	C142.811523,311.195465 137.953568,314.196411 132.737167,316.344757 
	C128.268570,318.185120 123.536430,319.387299 119.021980,315.845795 
	C98.466354,299.720184 100.351913,270.966980 123.508614,257.871918 
M367.154083,349.282898 
	C368.974579,348.683472 370.795074,348.084045 371.599579,347.819153 
	C373.272919,350.521210 374.264343,353.908539 375.791138,354.169983 
	C378.096161,354.564728 380.785400,352.807709 383.284058,351.890900 
	C383.708588,351.735107 383.944519,350.987640 384.356934,350.889709 
	C386.146637,350.464569 388.534973,349.324280 389.639221,350.055206 
	C391.069489,351.001892 392.260590,353.510071 392.193359,355.294678 
	C391.989380,360.709351 385.810699,364.091980 380.196625,362.180389 
	C378.715302,361.675995 377.327911,360.895844 375.897369,360.242310 
	C376.128845,362.039093 376.902405,363.228180 377.993011,363.910309 
	C383.991394,367.662445 391.592010,365.678711 394.800079,359.635437 
	C397.816498,353.953186 395.074158,346.733978 388.617737,343.943420 
	C381.238617,340.753998 373.983582,341.533630 366.998352,345.283844 
	C363.821625,346.989410 360.725464,348.845123 356.925964,351.013245 
	C357.123352,349.030640 357.233643,347.927948 357.342865,346.825134 
	C357.804688,342.163605 355.738739,338.672363 351.925842,336.359344 
	C348.071045,334.020905 343.891327,334.003326 340.144592,336.593475 
	C338.846161,337.491089 338.092712,339.347778 337.461151,340.915771 
	C337.308624,341.294495 338.836639,342.960205 339.235382,342.841064 
	C340.661499,342.414948 342.277039,341.766144 343.199677,340.675812 
	C345.762299,337.647430 348.547028,337.860931 350.976593,340.231628 
	C354.599945,343.767090 353.688446,348.184601 352.269623,352.407593 
	C351.005310,356.170715 348.215912,357.646698 344.249359,357.474670 
	C346.030487,349.336182 342.457611,344.885437 335.476562,346.109802 
	C329.973755,347.074921 328.523102,345.563202 329.637268,339.868164 
	C331.174194,332.012024 336.160614,326.563538 343.636230,325.225525 
	C354.196991,323.335327 365.066315,321.945923 375.748505,322.254639 
	C390.438019,322.678986 405.686981,325.062592 417.654755,333.478394 
	C425.766083,339.182373 430.323303,337.116913 436.460785,332.822174 
	C438.368439,331.487335 440.413849,330.350433 442.384613,329.104553 
	C453.683624,321.961578 462.361572,312.503662 467.360657,300.014343 
	C474.584869,281.966095 475.595856,263.858124 465.182251,246.728394 
	C457.230835,233.648773 443.731415,228.226410 429.695740,224.365891 
	C422.700378,222.441849 415.836975,220.670288 412.162018,213.810928 
	C398.457825,219.386093 378.857758,217.817474 366.948456,210.441528 
	C360.527954,206.465042 359.684448,203.482742 363.053436,197.002411 
	C363.443268,196.252518 363.481689,195.319931 363.755432,194.167358 
	C357.944336,195.061462 354.703735,198.460632 352.450165,202.925323 
	C347.271606,213.184814 350.445557,225.648834 360.390350,231.843643 
	C365.260132,234.877106 370.731171,237.356796 376.264923,238.825272 
	C387.021118,241.679596 398.056946,243.460220 408.897308,246.022461 
	C422.805511,249.309814 436.824554,252.371429 449.206207,260.097168 
	C462.610748,268.461151 467.751099,282.215607 462.661835,296.694153 
	C461.562744,299.821045 460.141449,302.880554 458.505157,305.764923 
	C450.615997,319.671631 444.506256,321.591400 430.526184,313.838226 
	C420.533295,308.296356 410.175476,303.898254 398.991577,301.686646 
	C375.675903,297.076019 354.244019,300.599487 336.160461,317.202728 
	C328.222046,324.491333 324.592072,333.812012 324.861176,344.467682 
	C325.054474,352.122223 329.192719,357.646942 335.913361,361.093262 
	C342.162628,364.297913 348.197693,363.406586 353.774048,359.329773 
	C358.068420,356.190186 362.261230,352.911682 367.154083,349.282898 
M138.613205,198.969299 
	C138.618561,200.298386 138.664658,201.628815 138.621368,202.956314 
	C138.506592,206.475800 137.090866,209.216919 133.424301,209.922562 
	C129.259384,210.724106 124.890343,211.096725 122.081985,207.036865 
	C121.260704,205.849579 121.186028,203.457825 121.844078,202.165497 
	C122.320908,201.229065 124.570702,201.195419 127.203629,200.408279 
	C125.954147,203.111008 125.388557,204.334427 124.822968,205.557846 
	C125.206474,205.913300 125.589973,206.268738 125.973480,206.624176 
	C127.561592,204.957443 130.151382,203.439224 130.427368,201.577911 
	C130.656586,200.031967 128.536285,197.379349 126.798653,196.457504 
	C123.152473,194.523132 118.543770,197.528961 117.904709,201.719116 
	C117.218025,206.221527 120.055290,210.978561 124.578964,212.909286 
	C132.374969,216.236664 141.614624,211.255096 142.677124,202.773697 
	C143.134354,199.123840 144.586182,196.992722 147.924362,195.756424 
	C156.184952,192.697006 164.286911,189.153442 172.673737,186.504532 
	C183.692490,183.024368 194.932892,182.189255 205.925385,186.870560 
	C218.554840,192.248947 226.046310,201.738068 226.546417,215.574097 
	C227.004288,228.241287 219.856522,236.770370 208.723892,241.418915 
	C200.034576,245.047211 190.842758,247.598175 181.711792,250.013901 
	C166.944000,253.920929 151.918381,256.889801 137.243256,261.097504 
	C127.993736,263.749573 120.038490,269.104004 114.694481,277.552856 
	C109.533905,285.711731 111.288681,297.645630 119.056236,304.770935 
	C118.677155,292.748199 126.671539,287.799133 135.956177,284.426483 
	C152.336624,278.476349 169.036057,275.797302 186.313217,280.747894 
	C187.950500,281.217010 191.205460,280.517853 191.810745,279.364594 
	C195.067703,273.158966 201.085281,270.545807 206.338898,266.795837 
	C211.999039,262.755707 217.759811,258.577301 222.455750,253.512634 
	C246.116501,227.993896 233.385544,190.820679 206.216263,181.609940 
	C195.020370,177.814377 185.307541,171.446121 176.610977,163.477966 
	C175.265457,162.245148 173.875092,160.714722 172.238052,160.235641 
	C170.258499,159.656311 167.340485,159.158203 165.960892,160.169540 
	C157.958984,166.035461 148.795410,168.804916 139.427826,171.279617 
	C133.881592,172.744812 128.417084,174.519333 121.916412,176.451859 
	C128.992615,183.434967 137.208664,188.303360 138.613205,198.969299 
M337.863739,206.467133 
	C333.043457,218.217438 333.380371,229.848740 338.682526,241.359482 
	C344.668121,254.354034 355.198334,262.726746 367.088623,269.942261 
	C370.896545,272.253113 373.701263,276.161560 377.293365,278.909760 
	C378.828644,280.084320 381.355072,280.956818 383.174896,280.612457 
	C401.646545,277.116821 419.558411,278.288177 436.862305,286.079926 
	C444.708099,289.612823 450.257294,294.731262 450.223633,304.072510 
	C450.222931,304.266968 450.646606,304.462921 450.873840,304.656403 
	C458.470795,297.425140 459.957703,285.457520 454.225159,276.986938 
	C449.781677,270.421051 443.649200,265.517456 436.291138,263.194397 
	C422.869843,258.957031 409.207520,255.418152 395.520264,252.106583 
	C382.120605,248.864594 368.328827,246.964981 356.333282,239.474350 
	C347.132874,233.729126 342.121979,225.578568 342.923309,214.499191 
	C344.340942,194.898209 362.001526,182.830994 382.275970,184.170380 
	C396.023926,185.078598 408.321106,190.476715 420.712952,195.796875 
	C424.216125,197.300873 426.398285,198.835876 426.695160,203.149063 
	C427.085754,208.824295 432.906677,213.658890 438.618225,214.103622 
	C444.376740,214.552017 449.394287,211.419144 451.186981,206.255920 
	C452.684509,201.942856 450.325195,197.172852 446.194305,196.496567 
	C442.999451,195.973511 440.526947,197.270264 439.688904,200.488052 
	C438.974060,203.232819 439.794067,205.486084 443.033569,206.008820 
	C443.456390,206.077072 443.938995,205.775055 444.266785,205.681015 
	C443.729279,204.289719 443.226929,202.989365 442.724548,201.689011 
	C442.986511,201.320694 443.248505,200.952377 443.510468,200.584061 
	C444.953156,201.191330 447.321686,201.504776 447.628784,202.472443 
	C448.131317,204.055771 447.827362,207.278351 446.923462,207.676849 
	C443.630035,209.128677 439.894714,210.573654 436.424927,210.366135 
	C432.490173,210.130814 430.988281,206.482574 430.786041,202.637955 
	C430.353363,194.412430 434.244049,188.326721 440.259033,183.233475 
	C442.432190,181.393341 444.455414,179.376114 447.344910,176.701035 
	C443.465179,175.517685 440.920898,174.859619 438.459991,173.970688 
	C427.717316,170.090134 416.652252,166.860779 406.415863,161.920441 
	C401.192413,159.399445 397.727509,158.971878 393.709473,162.822159 
	C384.053680,172.074875 372.581970,178.185242 360.211639,183.081345 
	C349.669739,187.253738 342.538605,195.305649 337.863739,206.467133 
M306.342133,214.923813 
	C314.764679,212.515549 322.089020,208.402985 328.257751,201.345123 
	C327.013153,201.174057 326.529022,201.037476 326.052032,201.058899 
	C325.390808,201.088608 324.715820,201.168213 324.079529,201.344711 
	C308.182953,205.754181 292.719666,206.093155 276.575409,200.706192 
	C260.322266,195.282867 245.549118,211.420898 243.006638,223.316513 
	C244.979752,222.202911 246.395981,221.089874 248.004547,220.551010 
	C254.401932,218.407883 260.799164,216.215897 267.316376,214.496658 
	C271.409882,213.416794 273.542023,214.788315 273.495636,219.847565 
	C273.228180,249.002228 273.319305,278.160187 273.291901,307.317047 
	C273.285553,314.085327 273.290985,320.853607 273.290985,327.847900 
	C269.176514,328.143524 265.636505,328.397888 262.096527,328.652283 
	C261.715820,329.092316 261.335114,329.532349 260.954407,329.972382 
	C276.936096,336.632690 284.202972,347.823639 279.741089,365.112091 
	C280.177490,365.154053 280.613922,365.196014 281.050354,365.237976 
	C282.254883,364.133942 283.459381,363.029877 284.482666,362.091980 
	C285.966583,363.108215 287.403534,364.092255 289.774719,365.716095 
	C286.331268,349.227783 290.374786,340.294128 303.564240,332.691772 
	C304.941101,331.898071 305.989380,330.534271 307.190125,329.434998 
	C304.484741,328.365021 302.341736,328.163300 300.251160,328.408508 
	C296.337311,328.867645 295.578003,327.044464 295.592316,323.500000 
	C295.720612,291.673462 295.688171,259.846313 295.700409,228.019333 
	C295.704407,217.616272 295.701019,217.616272 306.342133,214.923813 
z"/>
<path fill="#343594" opacity="1.000000" stroke="none" 
	d="
M101.776260,353.837616 
	C101.779732,353.004456 101.785149,352.171326 101.786369,351.338165 
	C101.797348,343.853058 104.780914,342.115265 111.566689,345.600586 
	C116.990074,348.386230 120.564674,352.762115 122.758606,358.370972 
	C125.484001,365.338501 127.540344,372.679413 131.132202,379.169159 
	C136.040359,388.037140 143.815140,394.511200 152.803787,399.147247 
	C160.028336,402.873444 167.829391,405.506714 174.953445,409.396362 
	C183.362793,413.987732 191.335052,419.383484 199.465363,424.480652 
	C204.003906,427.326019 202.654221,430.491516 200.080048,433.978027 
	C197.348343,437.677979 194.954514,435.572052 192.452454,433.926117 
	C187.205627,430.474609 182.147949,426.700317 176.718872,423.567627 
	C159.065445,413.381256 140.106567,409.024628 119.732079,411.553802 
	C108.909584,412.897308 98.367111,412.605164 89.428925,405.231354 
	C87.388000,403.547638 85.993721,401.080078 84.301819,398.973267 
	C86.496948,397.487213 88.503357,395.316406 90.924164,394.649170 
	C97.094948,392.948517 103.450745,391.919189 109.732513,390.621246 
	C109.825127,390.082092 109.917740,389.542969 110.010353,389.003845 
	C108.387436,387.806793 106.932518,386.088593 105.112831,385.502045 
	C96.761726,382.810242 88.452690,379.431793 79.856056,378.197174 
	C68.859077,376.617798 60.351852,371.309265 52.386822,364.331604 
	C47.773933,360.290558 42.845787,356.556671 38.627384,352.141937 
	C36.738373,350.165009 36.243366,346.856079 35.115757,344.151611 
	C35.536221,343.523804 35.956680,342.895966 36.377144,342.268158 
	C45.885590,343.762817 55.394032,345.257477 64.902473,346.752136 
	C65.118614,346.494812 65.334755,346.237488 65.550896,345.980164 
	C63.032543,343.759766 60.737644,341.194214 57.950138,339.389557 
	C51.830803,335.427887 45.532043,331.727264 39.178284,328.147736 
	C30.607794,323.319366 24.441145,316.814026 21.050087,307.240417 
	C17.258844,296.537048 12.985459,286.098816 14.198252,274.441772 
	C18.628508,273.333862 24.073744,276.177704 27.661549,281.531769 
	C32.354008,288.534271 36.952557,295.599701 41.634029,302.609650 
	C42.037941,303.214417 42.759701,303.606934 43.333809,304.098053 
	C43.760189,303.894318 44.186569,303.690613 44.612949,303.486877 
	C42.253170,296.910034 40.518291,290.015167 37.374557,283.837250 
	C33.494286,276.212006 28.672483,269.026062 23.837679,261.936584 
	C17.986488,253.356766 14.247770,243.985931 12.941506,233.801346 
	C11.640144,223.654984 10.855890,213.423264 10.383494,203.204086 
	C10.275981,200.878281 12.384564,198.450027 13.473139,196.068939 
	C15.151275,197.385071 16.994743,198.538193 18.479950,200.044540 
	C26.411793,208.089294 27.436678,218.568680 28.755196,229.030701 
	C29.710789,236.613007 31.246700,244.124481 32.621689,251.649673 
	C32.895390,253.147598 33.613068,254.564392 35.105061,255.813812 
	C35.105061,251.616745 35.565094,247.359314 35.023869,243.233246 
	C32.901955,227.056641 31.167028,210.779449 27.939959,194.812119 
	C24.900412,179.772644 25.765186,165.388748 30.554829,151.021469 
	C31.658966,147.709427 32.391644,144.246231 33.776951,141.062180 
	C35.485516,137.135132 38.415958,136.738480 40.978004,140.151474 
	C42.270313,141.873001 43.085957,144.308167 43.216530,146.474915 
	C43.526669,151.621155 43.299892,156.799759 43.012260,162.749786 
	C42.219795,166.906464 41.705158,170.278641 41.190521,173.650833 
	C41.696262,173.715729 42.202003,173.780624 42.707745,173.845535 
	C43.496368,170.247482 44.284992,166.649429 45.073620,163.051376 
	C46.699837,148.334671 48.423351,133.627853 49.920643,118.898056 
	C51.062084,107.668976 57.832932,99.426353 64.218811,90.938431 
	C64.515770,90.543724 64.931129,90.239433 65.281616,89.883453 
	C67.259125,87.874901 69.166092,83.771996 72.171928,86.303879 
	C74.287308,88.085693 75.691742,92.612343 75.074799,95.394829 
	C72.876801,105.308136 69.678474,114.999649 66.538803,125.884628 
	C68.010529,124.103851 69.063362,122.977554 69.948196,121.731918 
	C72.722923,117.825768 75.211868,113.685814 78.298355,110.049675 
	C79.296532,108.873756 82.020546,108.259972 83.538528,108.731140 
	C84.633125,109.070892 85.634369,111.625198 85.653404,113.204094 
	C85.772377,123.075768 81.705490,131.593933 76.516541,139.682144 
	C74.620560,142.637482 72.688782,145.569824 70.773331,148.512665 
	C71.119499,148.862534 71.465668,149.212387 71.811836,149.562256 
	C73.415123,148.620636 74.948448,147.516983 76.642479,146.785553 
	C78.162926,146.129059 80.054710,145.260773 81.406845,145.684708 
	C82.229622,145.942673 82.799438,148.504105 82.697540,149.976486 
	C81.922974,161.168762 77.134811,169.869080 66.916840,175.318222 
	C61.353119,178.285309 58.476009,183.630264 55.503979,188.772049 
	C55.857151,189.123367 56.210320,189.474686 56.563488,189.826004 
	C58.639286,187.940552 60.517502,185.744919 62.848465,184.260040 
	C65.020950,182.876160 67.675018,182.248306 70.724388,181.048752 
	C71.212715,192.477127 66.931061,200.991684 61.739471,209.179443 
	C59.975185,211.961929 57.966068,214.589172 55.593620,217.681122 
	C54.407631,219.746384 53.696846,221.417847 52.655266,223.130035 
	C51.791893,224.091797 51.259319,225.012848 50.526672,226.045334 
	C50.070683,226.370728 49.957233,226.643921 49.860260,227.249664 
	C49.383728,227.991577 49.033188,228.460144 48.488132,229.037979 
	C48.061176,229.367172 47.954990,229.636826 47.755333,230.325043 
	C47.317993,234.804245 47.100368,238.914642 46.581871,243.238007 
	C46.280998,244.841461 46.280998,246.231918 46.280998,247.622391 
	C46.631573,247.613281 46.982151,247.604156 47.332726,247.595047 
	C50.580051,238.127090 53.827374,228.659119 57.074692,219.191132 
	C58.538059,218.361389 60.001427,217.531647 62.237125,216.263977 
	C64.695465,229.486923 64.924057,241.549957 60.348186,253.374084 
	C57.589222,260.503296 54.608589,267.546448 51.765141,274.643341 
	C49.617596,280.003326 50.879578,284.999329 53.770130,290.983795 
	C55.239918,284.300507 56.062099,278.522430 57.863708,273.067902 
	C59.120117,269.263977 61.364674,265.631317 63.825890,262.427704 
	C65.936203,259.680878 68.833473,260.414062 70.126358,263.493835 
	C71.389282,266.502258 72.634476,269.885834 72.496948,273.044159 
	C72.115822,281.796783 72.206619,290.845856 69.922119,299.177612 
	C66.098373,313.123199 69.633041,325.457184 75.133659,337.801605 
	C76.145210,340.071716 77.474304,342.202026 78.701813,344.371429 
	C78.819733,344.579773 79.258675,344.606537 79.256317,344.605621 
	C78.971001,335.500214 78.657692,326.296997 78.417267,317.091858 
	C78.374184,315.442200 78.338020,313.686798 78.845299,312.162048 
	C79.243622,310.964813 80.340546,309.424500 81.392662,309.180176 
	C82.471367,308.929718 84.195099,309.751678 85.081413,310.651184 
	C91.503319,317.168640 94.741928,325.193817 95.619705,334.760681 
	C95.716866,335.994873 95.946457,336.666412 96.176056,337.337921 
	C96.372612,338.631805 96.569160,339.925690 96.637718,341.792297 
	C96.724304,342.909332 96.938881,343.453644 97.153458,343.997925 
	C97.990341,347.139221 98.827232,350.280487 99.728455,354.164917 
	C100.799088,357.385620 101.805389,359.863159 102.811691,362.340698 
	C103.115150,362.189758 103.418610,362.038818 103.722069,361.887878 
	C103.073463,359.204437 102.424866,356.521027 101.776260,353.837616 
M47.964954,198.632233 
	C43.086491,208.070374 43.086491,208.070374 45.141380,210.498749 
	C46.599537,207.552536 48.241467,204.705750 49.373215,201.668839 
	C49.724514,200.726166 48.691608,199.267670 47.964954,198.632233 
M54.677322,189.489716 
	C53.947746,190.699783 53.218166,191.909866 52.488590,193.119934 
	C53.115688,193.429642 53.742790,193.739349 54.369892,194.049057 
	C54.807041,192.476990 55.244194,190.904907 54.677322,189.489716 
M50.176548,194.432510 
	C50.543846,194.921066 50.911144,195.409637 51.278450,195.898193 
	C51.720581,195.383545 52.162712,194.868896 52.604836,194.354248 
	C52.058910,194.221008 51.512989,194.087753 50.176548,194.432510 
M69.813538,149.499252 
	C69.875542,149.885818 69.937546,150.272385 69.999550,150.658951 
	C70.416557,150.534912 70.833557,150.410873 71.250565,150.286835 
	C71.027046,149.815765 70.803535,149.344711 69.813538,149.499252 
z"/>
<path fill="#343594" opacity="1.000000" stroke="none" 
	d="
M510.260590,188.900330 
	C506.164917,181.464172 500.143097,175.917572 493.087646,171.381378 
	C486.937958,167.427582 481.247253,154.861557 482.560455,147.839645 
	C483.262573,144.085129 485.561249,144.472733 488.031982,146.141159 
	C490.474243,147.790314 492.844574,149.546005 496.036041,150.592407 
	C494.697449,148.523514 493.411743,146.418030 492.010895,144.392181 
	C486.404022,136.283630 481.153656,128.018723 479.995789,117.899956 
	C479.807037,116.250542 479.374908,114.514397 479.699921,112.952484 
	C480.035950,111.337456 480.828522,109.067276 482.025269,108.586304 
	C483.296539,108.075371 485.907013,108.799957 486.836243,109.906082 
	C490.410156,114.160233 493.544861,118.783356 497.334259,123.936417 
	C496.887146,121.262596 496.711639,119.009033 496.115723,116.872749 
	C494.241882,110.155617 492.148743,103.499565 490.284821,96.779831 
	C489.849731,95.211159 489.468658,93.299698 489.978607,91.873428 
	C490.746277,89.726204 491.931396,87.201118 493.712524,86.160408 
	C494.636078,85.620773 497.709808,87.517708 498.965668,89.021049 
	C502.879242,93.705856 506.566772,98.606361 510.015198,103.646790 
	C515.849854,112.175087 515.725464,122.210808 516.712830,131.947037 
	C517.702576,141.706192 518.757568,151.458740 519.849976,162.032593 
	C520.802185,167.161789 521.688477,171.472580 522.574768,175.783371 
	C523.337830,175.590500 524.100891,175.397629 524.863953,175.204773 
	C523.625305,170.806686 522.386597,166.408600 521.147949,162.010513 
	C521.182861,157.014221 521.174377,152.016998 521.282837,147.022308 
	C521.310425,145.751358 521.287109,144.103989 522.021118,143.298126 
	C523.813660,141.330154 526.035645,139.753342 528.084778,138.019058 
	C529.650757,140.152954 531.589111,142.113083 532.686829,144.465469 
	C534.009949,147.301056 534.551575,150.492279 535.549438,153.490280 
	C540.485168,168.319016 539.621948,183.061615 536.720032,198.294159 
	C533.331970,216.078766 531.756226,234.209610 529.445129,252.196777 
	C529.242432,253.774490 529.418274,255.400848 529.418274,257.004608 
	C529.882874,257.109253 530.347534,257.213898 530.812134,257.318573 
	C531.426270,255.586670 532.302124,253.900024 532.610779,252.115295 
	C534.254944,242.607086 536.145020,233.117065 537.200684,223.538162 
	C538.278625,213.756271 541.783508,205.232132 548.124573,197.847031 
	C548.941589,196.895508 550.808167,195.988907 551.807495,196.297073 
	C552.758118,196.590210 553.845215,198.535919 553.783264,199.696854 
	C553.075195,212.956497 552.657471,226.262619 551.136108,239.437836 
	C549.967896,249.554871 544.592590,258.205444 538.246582,266.036102 
	C530.667419,275.388397 526.509338,286.367432 522.540649,297.482849 
	C521.696045,299.848450 520.724609,302.168762 519.811584,304.509949 
	C520.269165,304.786133 520.726685,305.062347 521.184204,305.338531 
	C522.529968,303.498566 523.890442,301.669128 525.218933,299.816803 
	C530.416138,292.570526 535.347046,285.111450 540.920776,278.168030 
	C543.135681,275.408752 546.315002,272.603455 550.871887,274.095734 
	C552.526733,285.427368 548.190125,295.388458 545.007324,305.699707 
	C540.891418,319.033783 530.781616,325.865295 519.479553,332.094635 
	C512.309509,336.046478 505.667450,340.956238 498.788605,345.436401 
	C499.017578,345.922272 499.246521,346.408112 499.475494,346.893982 
	C509.228821,345.333984 518.982178,343.773987 528.572571,342.240051 
	C530.365234,348.066559 528.963074,351.244537 524.629700,353.715759 
	C521.805786,355.326141 519.360168,357.780945 517.120850,360.204651 
	C507.032410,371.123901 494.978394,377.581085 479.922302,379.191132 
	C473.146576,379.915710 466.616699,383.187836 460.059174,385.538147 
	C458.320496,386.161316 456.892609,387.651581 455.322052,388.743713 
	C455.343719,389.217438 455.365387,389.691193 455.387024,390.164917 
	C458.770905,391.103058 462.130554,392.143311 465.544983,392.952301 
	C469.418823,393.870087 473.463104,394.218018 477.212616,395.473022 
	C481.945862,397.057251 482.298309,399.645966 478.629181,403.078186 
	C469.488434,411.628754 458.375153,413.422272 446.590118,411.654175 
	C427.233704,408.750183 409.162506,413.119019 391.971252,421.344543 
	C384.737305,424.805786 378.360809,430.084473 371.677704,434.658447 
	C369.251099,436.319244 367.071777,436.896820 365.342560,434.050476 
	C363.736328,431.406555 360.330353,428.433105 364.742950,425.621399 
	C374.067810,419.679535 383.277344,413.424561 393.121124,408.462280 
	C405.713287,402.114471 418.894165,397.178894 428.920563,386.428802 
	C433.370728,381.657440 435.307159,376.066040 437.843536,370.538147 
	C440.673431,364.370605 443.288696,358.095184 446.377899,352.061554 
	C447.354126,350.154968 449.298065,348.281036 451.250488,347.439941 
	C454.605194,345.994751 458.314514,345.372742 461.875000,344.405182 
	C462.450592,347.664185 463.026184,350.923187 463.360199,354.892456 
	C462.484253,358.056488 461.849884,360.510254 461.215515,362.964020 
	C461.654938,363.088287 462.094330,363.212555 462.533752,363.336823 
	C463.402893,360.627655 464.272064,357.918488 465.141174,355.209320 
	C466.688934,347.895905 468.469604,340.622101 469.722229,333.258484 
	C471.117096,325.058685 473.408112,317.361145 479.677460,311.504822 
	C480.934387,310.330658 482.838165,309.848969 484.443695,309.047974 
	C485.262146,310.729675 486.820740,312.430176 486.778595,314.090027 
	C486.511749,324.595093 488.632660,335.315979 483.499756,346.543549 
	C485.253357,345.509430 486.282959,345.270416 486.598938,344.661255 
	C492.289886,333.691315 497.956848,322.591553 496.952209,309.758453 
	C496.488953,303.840759 494.061066,298.067688 493.681641,292.154755 
	C493.143433,283.768188 493.423187,275.297821 493.930695,266.898132 
	C494.053040,264.872498 496.171051,261.753052 497.865326,261.379974 
	C499.543060,261.010559 502.878876,263.008301 503.679443,264.783234 
	C506.107819,270.167145 507.761993,275.914673 509.508728,281.584991 
	C510.280914,284.091583 510.549744,286.753265 511.092712,289.582214 
	C515.154907,285.441925 515.438354,279.477997 512.866333,272.911987 
	C509.113342,263.331268 504.989563,253.793030 502.446991,243.871964 
	C500.233826,235.236267 500.758240,226.128738 503.066193,217.104462 
	C504.972870,217.322250 506.531891,217.500336 509.167572,217.801392 
	C502.019958,206.431793 494.003754,196.179276 494.533447,182.301788 
	C501.563110,180.360458 504.155548,186.624161 508.631195,190.369690 
	C513.212769,198.510376 517.508606,206.114441 521.804382,213.718491 
	C522.177246,213.534683 522.550171,213.350876 522.923035,213.167068 
	C521.104248,203.940445 516.849854,195.867432 510.260590,188.900330 
M514.253906,233.106979 
	C515.254456,236.358383 516.255066,239.609772 517.580811,243.917816 
	C519.307739,235.533539 518.084778,229.203476 511.337555,222.992355 
	C512.404724,227.029282 513.115784,229.719193 514.253906,233.106979 
M508.499969,218.999985 
	C508.633209,218.799973 508.766418,218.599945 508.899658,218.399948 
	C508.599762,218.433304 508.299896,218.466660 508.499969,218.999985 
z"/>
<path fill="#3B3C97" opacity="1.000000" stroke="none" 
	d="
M354.593811,107.000900 
	C354.598175,142.160049 326.655457,173.658112 291.890503,178.106140 
	C260.469696,182.126297 234.177353,172.673691 216.360001,146.018280 
	C187.736832,103.196968 212.206482,46.751011 262.641327,36.176468 
	C293.998657,29.601864 320.273621,39.124729 340.210846,64.307663 
	C349.859406,76.494850 354.821045,90.740341 354.593811,107.000900 
M212.335571,84.955276 
	C210.251556,91.348076 208.380646,97.770409 209.036835,104.526863 
	C212.837982,104.526863 216.057556,104.526863 219.494278,104.526863 
	C220.439056,90.166626 225.575470,77.849083 235.161835,67.505867 
	C232.590607,64.946617 230.291626,62.658340 227.507111,59.886784 
	C221.011429,67.127808 215.848114,75.052628 212.335571,84.955276 
M325.166046,64.996864 
	C322.925385,66.602791 323.386993,68.048721 325.237701,69.704651 
	C332.196777,75.931374 335.847290,84.056412 338.074554,92.893791 
	C338.995544,96.548027 339.478607,100.312630 340.131561,103.867615 
	C343.741058,103.867615 347.095306,103.867615 350.656860,103.867615 
	C349.441010,86.311974 342.794281,71.862015 330.471008,59.064705 
	C328.570129,61.233585 327.147705,62.856564 325.166046,64.996864 
M345.654816,132.058243 
	C347.601410,124.604645 349.548004,117.151047 351.638733,109.145538 
	C346.887665,109.145538 343.503967,109.145538 339.866547,109.145538 
	C338.995758,123.364601 333.544189,135.406921 324.628967,145.325485 
	C327.029541,148.226776 329.106812,150.737320 332.241852,154.526276 
	C337.055603,146.533768 341.203278,139.647186 345.654816,132.058243 
M273.028656,164.455963 
	C259.920288,163.256760 248.499237,158.022247 238.399933,149.399231 
	C235.867249,152.065842 233.652298,154.397934 231.125992,157.057831 
	C244.347809,168.154724 259.233124,174.358856 277.034973,174.905182 
	C277.034973,172.602417 276.913452,170.484131 277.066986,168.385986 
	C277.242676,165.984497 276.569550,164.505997 273.028656,164.455963 
M260.445587,40.838081 
	C249.398209,43.749065 239.608566,48.887070 230.404205,57.477688 
	C231.681015,58.192451 232.538437,58.478085 233.138794,59.038925 
	C238.507874,64.054573 238.152390,63.456520 244.398331,59.966194 
	C251.553528,55.967770 259.319641,53.004635 266.978912,49.995338 
	C269.937958,48.832748 273.332214,48.777916 276.276855,48.262405 
	C276.276855,44.663868 276.276855,41.598007 276.276855,37.794960 
	C270.942261,38.801064 266.091919,39.715847 260.445587,40.838081 
M310.621063,168.189728 
	C316.645508,164.533951 322.669983,160.878174 329.369598,156.812698 
	C325.927795,153.617691 323.444824,151.312775 320.522827,148.600327 
	C315.400909,153.255173 310.835693,157.800018 305.825195,161.785004 
	C303.440002,163.682037 299.222473,166.374420 297.539673,165.484161 
	C292.120605,162.617264 287.269409,164.589493 282.153748,164.995926 
	C282.153748,168.503952 282.153748,171.709991 282.153748,175.101120 
	C292.151306,174.813080 301.234924,172.474869 310.621063,168.189728 
M302.516418,41.882816 
	C295.767883,40.444172 289.019348,39.005527 281.902191,37.488297 
	C281.902191,40.899471 281.902191,43.306702 281.902191,45.855961 
	C286.392029,45.595825 290.761047,41.549397 296.099152,46.526066 
	C291.667725,47.269783 288.301361,47.834755 286.139862,48.197517 
	C291.626312,49.971218 298.014587,52.140224 304.471985,54.078880 
	C307.551086,55.003284 310.874847,56.743649 313.643555,53.106884 
	C313.798828,52.902931 316.530121,54.167095 316.481232,54.373493 
	C315.479706,58.602676 319.853973,59.485729 320.914398,62.805737 
	C323.404083,60.459606 325.442261,58.538982 327.633240,56.474339 
	C320.477142,49.888115 312.345825,45.205284 302.516418,41.882816 
M229.408447,83.039894 
	C226.232895,89.828400 224.047058,96.852020 223.894318,104.677200 
	C227.427109,104.677200 230.534561,104.677200 234.096237,104.677200 
	C234.812515,94.148376 238.792526,85.016914 245.888580,76.992081 
	C243.260605,74.598770 240.999420,72.539482 238.095200,69.894585 
	C235.056503,74.431351 232.398880,78.399208 229.408447,83.039894 
M243.321259,65.710808 
	C243.226669,66.643967 242.692520,67.973969 243.114182,68.441048 
	C244.866959,70.382553 246.907913,72.063873 248.843124,73.840668 
	C248.764313,73.382919 248.685486,72.925171 248.606674,72.467415 
	C257.843231,68.767937 267.079773,65.068451 276.572083,61.266525 
	C276.572083,59.248348 276.572083,56.314407 276.572083,52.945789 
	C264.204651,53.883797 253.323563,57.647293 243.321259,65.710808 
M319.561462,127.966133 
	C317.713989,130.669403 315.866486,133.372665 314.043121,136.040665 
	C316.725281,137.893768 319.294189,139.668610 322.198364,141.675110 
	C330.351318,132.766174 334.733459,121.883339 335.571136,109.132515 
	C332.144989,109.132515 328.871155,108.565651 326.078949,109.476028 
	C325.235138,109.751144 325.733948,114.121788 325.596985,116.615311 
	C325.579865,116.926849 325.491455,117.262840 325.340454,117.534309 
	C323.527527,120.793991 321.696564,124.043633 319.561462,127.966133 
M335.154572,100.153084 
	C334.923645,90.454514 329.670380,84.169441 321.640625,79.434090 
	C318.391693,77.518089 314.630463,75.710762 313.869965,71.100555 
	C313.720367,70.193642 311.908569,69.560936 310.863342,68.801773 
	C310.509979,69.186279 310.156586,69.570786 309.803223,69.955292 
	C311.595856,74.724037 313.529846,79.369934 318.539886,82.038933 
	C319.460754,82.529518 320.557465,83.415176 320.803558,84.326286 
	C322.112762,89.173981 323.120117,94.102257 324.355164,98.971397 
	C324.823120,100.816284 325.367096,103.944008 326.315277,104.119789 
	C329.113800,104.638588 332.138672,104.028465 335.048370,103.653641 
	C335.247284,103.628014 335.226440,101.896538 335.154572,100.153084 
M263.305481,148.321533 
	C260.014008,146.975418 256.755920,144.673294 253.421555,144.556992 
	C250.205475,144.444824 246.910706,146.588821 243.226303,147.891647 
	C253.080170,155.244385 263.544861,159.840637 275.942688,160.236862 
	C275.942688,156.941681 275.942688,154.060654 275.942688,151.551208 
	C271.704071,150.532211 267.857452,149.607468 263.305481,148.321533 
M282.443573,62.854145 
	C289.440308,64.591377 296.437012,66.328613 303.712799,68.135132 
	C303.747559,68.025330 304.020844,67.162224 304.310638,66.247009 
	C305.464752,66.899223 306.571777,67.524834 307.823151,68.232025 
	C308.999512,57.155811 293.676331,52.820366 281.832886,53.743656 
	C281.832886,56.550201 281.832886,59.358479 282.443573,62.854145 
M277.850189,118.605324 
	C281.046051,116.639641 284.243439,114.676483 287.431458,112.698128 
	C287.546844,112.626541 287.658386,112.378990 287.622375,112.257919 
	C286.413727,108.198006 286.011505,103.589684 283.753998,100.228447 
	C280.932770,96.027908 273.952057,97.694145 270.848694,102.827209 
	C270.186798,103.921989 269.804535,105.932846 270.376923,106.831749 
	C271.045074,107.881004 272.853027,108.342247 274.256439,108.745110 
	C275.549347,109.116249 276.961578,109.071899 279.589233,109.339882 
	C277.531525,112.724777 276.051147,115.160019 274.522186,117.675171 
	C275.241577,117.877991 276.179077,118.142303 277.850189,118.605324 
M295.198517,70.108177 
	C290.950317,68.990845 286.702087,67.873520 282.002380,66.637444 
	C282.002380,70.623726 282.002380,73.708542 282.002380,76.304985 
	C286.854004,78.084999 291.654419,79.190430 295.732178,81.546600 
	C299.087006,83.485085 301.001434,83.246323 303.193451,80.380440 
	C304.061462,79.245583 305.362030,78.441551 307.261047,76.798904 
	C303.014832,74.408829 299.462891,72.409515 295.198517,70.108177 
M269.099915,68.316040 
	C263.485748,70.851471 257.871582,73.386894 252.257416,75.922318 
	C252.053558,76.689377 251.849701,77.456436 251.645844,78.223503 
	C253.284531,79.316551 254.839371,80.577721 256.588135,81.450058 
	C258.016235,82.162415 259.976471,83.191910 261.180847,82.728783 
	C266.339905,80.744980 271.306549,78.260750 276.589264,75.846558 
	C276.589264,73.465378 276.589264,70.424332 276.589264,67.142082 
	C274.113617,67.498703 272.001923,67.802887 269.099915,68.316040 
M222.106689,135.228806 
	C219.535797,133.993713 216.964920,132.758606 214.394028,131.523514 
	C213.975601,131.889938 213.557159,132.256348 213.138733,132.622757 
	C217.673019,139.647964 222.207321,146.673187 227.110229,154.269516 
	C230.232071,150.854935 232.427185,148.453964 235.048508,145.586838 
	C231.041306,142.380386 226.863403,139.037354 222.106689,135.228806 
M243.715988,117.838165 
	C245.086075,123.051094 246.456161,128.264023 248.082504,134.451965 
	C251.024750,131.408890 253.298691,129.057007 255.600800,126.676018 
	C252.612183,121.332901 249.783585,116.275856 246.860733,111.050293 
	C250.636017,111.414787 250.228958,108.396584 249.681564,105.786514 
	C249.486511,104.856499 247.800995,104.239082 247.410080,103.943474 
	C245.901627,106.716553 245.240799,109.020866 243.741913,110.440117 
	C241.286942,112.764687 241.051453,114.755615 243.715988,117.838165 
M242.791077,99.624748 
	C247.239395,95.456276 251.687714,91.287796 256.427948,86.845764 
	C253.808655,84.541786 251.505142,82.515587 248.838043,80.169571 
	C242.833115,87.661316 238.672699,95.194984 238.793350,104.438965 
	C239.386642,104.675507 239.979935,104.912048 240.573227,105.148598 
	C241.202484,103.540802 241.831741,101.933014 242.791077,99.624748 
M220.023880,113.470238 
	C219.746216,112.064842 219.468567,110.659447 219.236404,109.484360 
	C215.498703,109.484360 212.274094,109.484360 208.109497,109.484360 
	C209.398376,115.775406 210.575226,121.519669 211.512756,126.095795 
	C214.747055,123.818375 217.769958,121.689812 220.923706,119.469109 
	C220.665192,117.907990 220.368332,116.115303 220.023880,113.470238 
M254.802139,133.431244 
	C253.399048,134.799149 251.291962,136.276764 254.224899,137.966766 
	C259.112274,140.782913 264.154053,143.331131 268.890045,145.863419 
	C269.203552,141.813324 269.431305,138.870880 269.652710,136.011047 
	C266.118195,134.077087 262.389008,132.036636 257.594208,129.413101 
	C256.953308,130.393890 256.134277,131.647247 254.802139,133.431244 
M268.737671,120.139931 
	C266.706940,121.975174 264.676178,123.810410 261.674713,126.522934 
	C266.579468,128.742554 270.482208,130.508713 275.030701,132.567108 
	C276.300934,129.012817 277.260559,126.327606 278.087006,124.015068 
	C274.572845,122.437096 272.025391,121.293198 268.737671,120.139931 
M291.118958,92.881218 
	C292.178040,92.095833 293.900452,91.475899 294.146881,90.487831 
	C294.557373,88.842072 294.618683,85.813316 293.781189,85.377708 
	C290.257141,83.544769 286.345642,82.456665 281.420898,80.679031 
	C281.861023,84.178848 282.116272,86.208481 282.371490,88.238113 
	C284.626129,87.944450 286.880798,87.650787 289.877655,87.260452 
	C288.577698,89.377434 287.534271,91.076653 286.088440,93.431183 
	C287.791992,93.431183 289.215118,93.431183 291.118958,92.881218 
M312.155182,92.512619 
	C314.335571,93.353790 316.515961,94.194962 319.363464,95.293503 
	C316.081970,89.685593 313.308136,84.945251 310.007812,79.305145 
	C306.868744,82.395767 304.488037,84.739746 302.396423,86.799080 
	C305.988342,88.720604 308.886749,90.271111 312.155182,92.512619 
M272.370422,90.127632 
	C273.776306,89.411949 275.182159,88.696266 276.824280,87.860306 
	C276.824280,86.240547 276.824280,84.190750 276.824280,80.604744 
	C271.346344,82.953362 266.733307,84.931152 261.129669,87.333664 
	C265.279266,90.424271 267.670746,93.912971 272.370422,90.127632 
M318.332275,120.151070 
	C314.833618,117.372787 311.202240,118.924644 309.019043,121.335396 
	C307.564423,122.941650 307.947968,126.504608 308.126923,129.149994 
	C308.195557,130.164841 309.981049,131.063538 311.696808,132.691116 
	C314.075226,128.369995 316.109528,124.674042 318.332275,120.151070 
M233.640030,109.395218 
	C230.447006,109.395218 227.253998,109.395218 223.487808,109.395218 
	C224.330978,113.693756 225.069000,117.456215 225.708206,120.714882 
	C227.964539,117.956291 229.957733,115.560661 231.899796,113.124268 
	C232.653107,112.179176 233.290817,111.141930 233.640030,109.395218 
M288.742554,134.221954 
	C290.772217,132.838364 292.801880,131.454773 294.831543,130.071167 
	C291.729706,129.481567 288.939880,130.650497 286.703217,129.978424 
	C282.898041,128.835052 280.582062,129.958466 278.584381,132.573120 
	C281.784271,133.265823 284.938965,133.948730 288.742554,134.221954 
M281.680328,157.280350 
	C281.852325,158.357986 282.024323,159.435608 282.213287,160.619507 
	C284.470764,160.335709 286.417236,160.091003 288.457855,159.834473 
	C287.519806,158.354370 286.680054,157.012024 285.822357,155.681259 
	C285.081757,154.532196 284.320801,153.396271 283.568878,152.254532 
	C282.936432,153.645462 282.303986,155.036377 281.680328,157.280350 
M313.831482,149.329865 
	C314.819305,148.497391 315.807129,147.664902 317.323456,146.387039 
	C314.773926,143.845169 312.505737,141.583817 310.237549,139.322449 
	C309.776154,139.800735 309.314728,140.279007 308.853333,140.757278 
	C310.216461,142.205505 311.579590,143.653717 312.876129,145.031235 
	C310.804840,148.831833 310.804840,148.831833 313.831482,149.329865 
z"/>
<path fill="#F38423" opacity="1.000000" stroke="none" 
	d="
M123.176216,258.035217 
	C100.351913,270.966980 98.466354,299.720184 119.021980,315.845795 
	C123.536430,319.387299 128.268570,318.185120 132.737167,316.344757 
	C137.953568,314.196411 142.811523,311.195465 147.952454,308.842987 
	C170.721054,298.424072 193.938126,295.543182 217.439865,306.083618 
	C231.357635,312.325714 241.423096,322.411682 244.119034,338.074890 
	C244.768387,341.847595 244.386612,346.202301 243.134659,349.824738 
	C238.688019,362.690613 225.494675,366.497650 214.456100,358.427338 
	C210.829636,355.776001 207.467133,352.756622 203.784607,350.191711 
	C201.704300,348.742767 199.218628,347.875854 197.613892,347.089111 
	C196.150879,349.846161 195.558182,352.736450 193.826309,353.841614 
	C190.646500,355.870789 188.162460,353.194061 185.464584,351.382202 
	C183.636795,350.154755 180.828232,350.387604 178.458328,349.967346 
	C178.240417,352.457336 177.225571,355.222870 177.971298,357.379669 
	C179.500275,361.801697 184.607986,363.516998 189.275024,361.851501 
	C190.632309,361.367157 191.906418,360.649719 193.462036,359.925873 
	C191.643982,365.234528 184.001999,367.400818 179.087479,364.175903 
	C175.237961,361.649811 172.713745,358.220093 173.496643,353.294159 
	C174.287704,348.316864 176.781631,344.455139 181.848022,343.088928 
	C189.897003,340.918427 197.661346,341.439301 204.807968,346.303680 
	C206.952194,347.763153 209.290588,348.937378 211.210846,350.051331 
	C212.215210,346.205688 212.502777,342.456696 214.133453,339.431702 
	C217.190918,333.759796 225.465576,332.638031 230.056610,337.075439 
	C231.072830,338.057648 230.778717,340.395569 231.087952,342.109253 
	C229.563904,341.769196 228.011719,341.521423 226.522507,341.067200 
	C224.353195,340.405457 221.806351,338.508087 220.197220,339.134094 
	C218.349991,339.852722 216.584503,342.587280 216.125427,344.733246 
	C214.686356,351.460144 218.370773,356.492676 224.867554,357.204376 
	C224.867554,356.571869 224.989914,355.938965 224.848816,355.371552 
	C223.257492,348.972137 226.850098,345.005676 233.407440,345.960419 
	C239.098541,346.789032 241.716324,344.271484 239.479492,338.899994 
	C237.722504,334.680756 234.863480,330.064545 231.165176,327.727295 
	C226.585068,324.832764 220.732162,323.215210 215.255630,322.606323 
	C193.883423,320.230194 173.058197,322.498596 153.415497,331.976715 
	C151.774307,332.768616 149.854553,333.508362 148.775391,334.846069 
	C144.808701,339.763123 141.202560,337.760742 136.853973,335.236755 
	C123.687660,327.594757 111.627579,318.787750 104.459587,304.930450 
	C96.403564,289.356415 94.160789,272.889679 99.514084,256.004852 
	C104.746513,239.501282 117.884743,231.350723 133.242828,225.958466 
	C135.436127,225.188400 137.671356,224.504959 139.930420,223.961075 
	C146.811646,222.304291 153.544739,220.439819 157.113159,213.654037 
	C172.338440,220.079025 186.595551,216.995377 200.508057,211.095001 
	C208.517212,207.698273 209.470703,204.421280 206.165833,196.272797 
	C205.941238,195.719055 205.972504,195.061523 205.673965,192.988266 
	C208.882843,194.963196 211.507019,195.993256 213.354141,197.812347 
	C223.505447,207.809616 220.627594,226.216354 206.737640,232.769714 
	C196.516220,237.592239 185.160599,240.324631 174.056625,242.890060 
	C156.875992,246.859421 139.452286,249.801041 123.176216,258.035217 
z"/>
<path fill="#F38423" opacity="1.000000" stroke="none" 
	d="
M366.826630,349.488892 
	C362.261230,352.911682 358.068420,356.190186 353.774048,359.329773 
	C348.197693,363.406586 342.162628,364.297913 335.913361,361.093262 
	C329.192719,357.646942 325.054474,352.122223 324.861176,344.467682 
	C324.592072,333.812012 328.222046,324.491333 336.160461,317.202728 
	C354.244019,300.599487 375.675903,297.076019 398.991577,301.686646 
	C410.175476,303.898254 420.533295,308.296356 430.526184,313.838226 
	C444.506256,321.591400 450.615997,319.671631 458.505157,305.764923 
	C460.141449,302.880554 461.562744,299.821045 462.661835,296.694153 
	C467.751099,282.215607 462.610748,268.461151 449.206207,260.097168 
	C436.824554,252.371429 422.805511,249.309814 408.897308,246.022461 
	C398.056946,243.460220 387.021118,241.679596 376.264923,238.825272 
	C370.731171,237.356796 365.260132,234.877106 360.390350,231.843643 
	C350.445557,225.648834 347.271606,213.184814 352.450165,202.925323 
	C354.703735,198.460632 357.944336,195.061462 363.755432,194.167358 
	C363.481689,195.319931 363.443268,196.252518 363.053436,197.002411 
	C359.684448,203.482742 360.527954,206.465042 366.948456,210.441528 
	C378.857758,217.817474 398.457825,219.386093 412.162018,213.810928 
	C415.836975,220.670288 422.700378,222.441849 429.695740,224.365891 
	C443.731415,228.226410 457.230835,233.648773 465.182251,246.728394 
	C475.595856,263.858124 474.584869,281.966095 467.360657,300.014343 
	C462.361572,312.503662 453.683624,321.961578 442.384613,329.104553 
	C440.413849,330.350433 438.368439,331.487335 436.460785,332.822174 
	C430.323303,337.116913 425.766083,339.182373 417.654755,333.478394 
	C405.686981,325.062592 390.438019,322.678986 375.748505,322.254639 
	C365.066315,321.945923 354.196991,323.335327 343.636230,325.225525 
	C336.160614,326.563538 331.174194,332.012024 329.637268,339.868164 
	C328.523102,345.563202 329.973755,347.074921 335.476562,346.109802 
	C342.457611,344.885437 346.030487,349.336182 344.249359,357.474670 
	C348.215912,357.646698 351.005310,356.170715 352.269623,352.407593 
	C353.688446,348.184601 354.599945,343.767090 350.976593,340.231628 
	C348.547028,337.860931 345.762299,337.647430 343.199677,340.675812 
	C342.277039,341.766144 340.661499,342.414948 339.235382,342.841064 
	C338.836639,342.960205 337.308624,341.294495 337.461151,340.915771 
	C338.092712,339.347778 338.846161,337.491089 340.144592,336.593475 
	C343.891327,334.003326 348.071045,334.020905 351.925842,336.359344 
	C355.738739,338.672363 357.804688,342.163605 357.342865,346.825134 
	C357.233643,347.927948 357.123352,349.030640 356.925964,351.013245 
	C360.725464,348.845123 363.821625,346.989410 366.998352,345.283844 
	C373.983582,341.533630 381.238617,340.753998 388.617737,343.943420 
	C395.074158,346.733978 397.816498,353.953186 394.800079,359.635437 
	C391.592010,365.678711 383.991394,367.662445 377.993011,363.910309 
	C376.902405,363.228180 376.128845,362.039093 375.897369,360.242310 
	C377.327911,360.895844 378.715302,361.675995 380.196625,362.180389 
	C385.810699,364.091980 391.989380,360.709351 392.193359,355.294678 
	C392.260590,353.510071 391.069489,351.001892 389.639221,350.055206 
	C388.534973,349.324280 386.146637,350.464569 384.356934,350.889709 
	C383.944519,350.987640 383.708588,351.735107 383.284058,351.890900 
	C380.785400,352.807709 378.096161,354.564728 375.791138,354.169983 
	C374.264343,353.908539 373.272919,350.521210 371.599579,347.819153 
	C370.795074,348.084045 368.974579,348.683472 366.826630,349.488892 
z"/>
<path fill="#F38423" opacity="1.000000" stroke="none" 
	d="
M138.529907,198.575653 
	C137.208664,188.303360 128.992615,183.434967 121.916412,176.451859 
	C128.417084,174.519333 133.881592,172.744812 139.427826,171.279617 
	C148.795410,168.804916 157.958984,166.035461 165.960892,160.169540 
	C167.340485,159.158203 170.258499,159.656311 172.238052,160.235641 
	C173.875092,160.714722 175.265457,162.245148 176.610977,163.477966 
	C185.307541,171.446121 195.020370,177.814377 206.216263,181.609940 
	C233.385544,190.820679 246.116501,227.993896 222.455750,253.512634 
	C217.759811,258.577301 211.999039,262.755707 206.338898,266.795837 
	C201.085281,270.545807 195.067703,273.158966 191.810745,279.364594 
	C191.205460,280.517853 187.950500,281.217010 186.313217,280.747894 
	C169.036057,275.797302 152.336624,278.476349 135.956177,284.426483 
	C126.671539,287.799133 118.677155,292.748199 119.056236,304.770935 
	C111.288681,297.645630 109.533905,285.711731 114.694481,277.552856 
	C120.038490,269.104004 127.993736,263.749573 137.243256,261.097504 
	C151.918381,256.889801 166.944000,253.920929 181.711792,250.013901 
	C190.842758,247.598175 200.034576,245.047211 208.723892,241.418915 
	C219.856522,236.770370 227.004288,228.241287 226.546417,215.574097 
	C226.046310,201.738068 218.554840,192.248947 205.925385,186.870560 
	C194.932892,182.189255 183.692490,183.024368 172.673737,186.504532 
	C164.286911,189.153442 156.184952,192.697006 147.924362,195.756424 
	C144.586182,196.992722 143.134354,199.123840 142.677124,202.773697 
	C141.614624,211.255096 132.374969,216.236664 124.578964,212.909286 
	C120.055290,210.978561 117.218025,206.221527 117.904709,201.719116 
	C118.543770,197.528961 123.152473,194.523132 126.798653,196.457504 
	C128.536285,197.379349 130.656586,200.031967 130.427368,201.577911 
	C130.151382,203.439224 127.561592,204.957443 125.973480,206.624176 
	C125.589973,206.268738 125.206474,205.913300 124.822968,205.557846 
	C125.388557,204.334427 125.954147,203.111008 127.203629,200.408279 
	C124.570702,201.195419 122.320908,201.229065 121.844078,202.165497 
	C121.186028,203.457825 121.260704,205.849579 122.081985,207.036865 
	C124.890343,211.096725 129.259384,210.724106 133.424301,209.922562 
	C137.090866,209.216919 138.506592,206.475800 138.621368,202.956314 
	C138.664658,201.628815 138.618561,200.298386 138.529907,198.575653 
z"/>
<path fill="#F38422" opacity="1.000000" stroke="none" 
	d="
M338.023102,206.119583 
	C342.538605,195.305649 349.669739,187.253738 360.211639,183.081345 
	C372.581970,178.185242 384.053680,172.074875 393.709473,162.822159 
	C397.727509,158.971878 401.192413,159.399445 406.415863,161.920441 
	C416.652252,166.860779 427.717316,170.090134 438.459991,173.970688 
	C440.920898,174.859619 443.465179,175.517685 447.344910,176.701035 
	C444.455414,179.376114 442.432190,181.393341 440.259033,183.233475 
	C434.244049,188.326721 430.353363,194.412430 430.786041,202.637955 
	C430.988281,206.482574 432.490173,210.130814 436.424927,210.366135 
	C439.894714,210.573654 443.630035,209.128677 446.923462,207.676849 
	C447.827362,207.278351 448.131317,204.055771 447.628784,202.472443 
	C447.321686,201.504776 444.953156,201.191330 443.510468,200.584061 
	C443.248505,200.952377 442.986511,201.320694 442.724548,201.689011 
	C443.226929,202.989365 443.729279,204.289719 444.266785,205.681015 
	C443.938995,205.775055 443.456390,206.077072 443.033569,206.008820 
	C439.794067,205.486084 438.974060,203.232819 439.688904,200.488052 
	C440.526947,197.270264 442.999451,195.973511 446.194305,196.496567 
	C450.325195,197.172852 452.684509,201.942856 451.186981,206.255920 
	C449.394287,211.419144 444.376740,214.552017 438.618225,214.103622 
	C432.906677,213.658890 427.085754,208.824295 426.695160,203.149063 
	C426.398285,198.835876 424.216125,197.300873 420.712952,195.796875 
	C408.321106,190.476715 396.023926,185.078598 382.275970,184.170380 
	C362.001526,182.830994 344.340942,194.898209 342.923309,214.499191 
	C342.121979,225.578568 347.132874,233.729126 356.333282,239.474350 
	C368.328827,246.964981 382.120605,248.864594 395.520264,252.106583 
	C409.207520,255.418152 422.869843,258.957031 436.291138,263.194397 
	C443.649200,265.517456 449.781677,270.421051 454.225159,276.986938 
	C459.957703,285.457520 458.470795,297.425140 450.873077,304.657288 
	C450.646606,304.462921 450.222931,304.266968 450.223633,304.072510 
	C450.257294,294.731262 444.708099,289.612823 436.862305,286.079926 
	C419.558411,278.288177 401.646545,277.116821 383.174896,280.612457 
	C381.355072,280.956818 378.828644,280.084320 377.293365,278.909760 
	C373.701263,276.161560 370.896545,272.253113 367.088623,269.942261 
	C355.198334,262.726746 344.668121,254.354034 338.682526,241.359482 
	C333.380371,229.848740 333.043457,218.217438 338.023102,206.119583 
z"/>
<path fill="#F48525" opacity="1.000000" stroke="none" 
	d="
M305.936523,214.977936 
	C295.701019,217.616272 295.704407,217.616272 295.700409,228.019333 
	C295.688171,259.846313 295.720612,291.673462 295.592316,323.500000 
	C295.578003,327.044464 296.337311,328.867645 300.251160,328.408508 
	C302.341736,328.163300 304.484741,328.365021 307.190125,329.434998 
	C305.989380,330.534271 304.941101,331.898071 303.564240,332.691772 
	C290.374786,340.294128 286.331268,349.227783 289.774719,365.716095 
	C287.403534,364.092255 285.966583,363.108215 284.482666,362.091980 
	C283.459381,363.029877 282.254883,364.133942 281.050354,365.237976 
	C280.613922,365.196014 280.177490,365.154053 279.741089,365.112091 
	C284.202972,347.823639 276.936096,336.632690 260.954407,329.972382 
	C261.335114,329.532349 261.715820,329.092316 262.096527,328.652283 
	C265.636505,328.397888 269.176514,328.143524 273.290985,327.847900 
	C273.290985,320.853607 273.285553,314.085327 273.291901,307.317047 
	C273.319305,278.160187 273.228180,249.002228 273.495636,219.847565 
	C273.542023,214.788315 271.409882,213.416794 267.316376,214.496658 
	C260.799164,216.215897 254.401932,218.407883 248.004547,220.551010 
	C246.395981,221.089874 244.979752,222.202911 243.006638,223.316513 
	C245.549118,211.420898 260.322266,195.282867 276.575409,200.706192 
	C292.719666,206.093155 308.182953,205.754181 324.079529,201.344711 
	C324.715820,201.168213 325.390808,201.088608 326.052032,201.058899 
	C326.529022,201.037476 327.013153,201.174057 328.257751,201.345123 
	C322.089020,208.402985 314.764679,212.515549 305.936523,214.977936 
z"/>
<path fill="#3D3E98" opacity="1.000000" stroke="none" 
	d="
M281.070007,441.969971 
	C279.611237,435.986511 278.152496,430.003052 276.693726,424.019592 
	C276.211334,424.016937 275.728973,424.014313 275.246582,424.011658 
	C273.802338,430.045166 270.906952,434.644897 265.266815,435.718384 
	C265.266815,428.100342 265.387054,420.551727 265.228058,413.008972 
	C265.104980,407.169403 265.105103,401.439453 268.453064,396.244720 
	C268.061829,396.007385 268.025604,396.039154 268.025604,396.039154 
	C270.522675,395.099792 273.019745,394.160461 275.234833,393.327179 
	C275.234833,399.690918 275.234833,406.199860 275.234833,414.247467 
	C279.889099,405.911987 283.933960,398.667908 287.586884,392.125732 
	C291.942169,392.466827 295.584778,392.752106 299.209717,393.036011 
	C298.557190,399.086182 294.646759,403.322693 288.979797,402.690735 
	C285.902008,402.347473 284.790894,403.554993 283.708832,405.803009 
	C282.915894,407.450348 282.091980,409.109497 281.055054,410.606262 
	C279.604248,412.700500 280.149292,414.022247 281.495178,416.212524 
	C284.943512,421.824066 287.876526,427.795258 290.538910,433.832855 
	C292.570587,438.440002 294.148163,442.988403 301.923187,440.109863 
	C298.737579,444.303986 296.491333,447.321106 294.179901,450.287445 
	C291.935211,453.168091 289.358093,451.584229 287.700134,449.995270 
	C285.353455,447.746063 283.683777,444.790466 281.360413,441.997192 
	C280.996063,441.857574 281.070007,441.969971 281.070007,441.969971 
z"/>
<path fill="#373896" opacity="1.000000" stroke="none" 
	d="
M254.096817,440.968018 
	C253.197891,440.609344 252.298965,440.250671 251.797348,440.050537 
	C252.061646,436.864410 252.481689,433.821106 252.531097,430.771790 
	C252.625488,424.946777 252.033295,424.636047 245.674194,427.719879 
	C245.242172,425.190552 243.849854,422.393036 244.711945,420.879913 
	C246.143295,418.367584 249.023209,416.680542 252.319427,413.725739 
	C251.816147,408.590149 255.231323,404.351257 261.956268,402.157349 
	C261.956268,411.602631 262.026703,420.818573 261.923523,430.032532 
	C261.878815,434.026550 259.958008,436.964569 255.729797,438.719452 
	C255.342590,438.977325 255.065948,438.975128 254.720703,439.078430 
	C254.239365,439.807190 254.103256,440.432678 254.001343,441.038208 
	C254.035553,441.018250 254.096817,440.968018 254.096817,440.968018 
z"/>
<path fill="#3A3B97" opacity="1.000000" stroke="none" 
	d="
M255.065948,438.975128 
	C255.065948,438.975128 255.342590,438.977325 255.480774,438.983643 
	C256.136047,439.376892 256.844330,440.212433 257.142273,440.085419 
	C265.155640,436.669617 272.884888,437.976898 280.794922,441.646118 
	C281.070007,441.969971 280.996063,441.857574 280.991333,441.822815 
	C278.494476,444.836395 276.002289,447.884735 273.265198,451.232635 
	C264.571381,445.520050 255.735870,445.475800 246.719513,449.962524 
	C246.478455,449.579590 246.237396,449.196655 245.996338,448.813721 
	C248.619232,446.414795 251.242126,444.015900 253.980911,441.292511 
	C254.096817,440.968018 254.035553,441.018250 254.423096,440.968567 
	C254.895752,440.270996 254.980850,439.623047 255.065948,438.975128 
z"/>
<path fill="#3F409A" opacity="1.000000" stroke="none" 
	d="
M324.753632,445.949097 
	C325.800354,441.378418 329.363129,440.537659 335.872986,443.032867 
	C335.872986,449.560883 335.872986,455.904297 335.872986,462.383209 
	C331.469147,463.358307 327.592804,464.216583 323.100555,464.833435 
	C322.657471,461.727295 322.830322,458.862610 323.438232,456.050171 
	C325.470001,456.007721 327.066711,455.912994 330.310242,455.720612 
	C328.396515,452.536774 327.052277,450.300385 326.067993,448.038239 
	C327.585388,447.803436 328.742798,447.594421 329.900177,447.385406 
	C329.798126,446.906647 329.696045,446.427856 329.593964,445.949097 
	C327.980530,445.949097 326.367065,445.949097 324.753632,445.949097 
z"/>
<path fill="#373896" opacity="1.000000" stroke="none" 
	d="
M318.181030,469.411987 
	C316.493011,469.817017 314.804993,470.222076 312.743713,470.716705 
	C312.743713,468.660614 312.743713,466.626556 312.743713,464.141235 
	C311.048401,464.295776 309.770691,464.412262 307.779816,464.593750 
	C309.885620,461.435913 311.591187,458.878296 313.442596,456.101959 
	C310.687103,455.184143 309.092072,454.652832 307.497009,454.121552 
	C308.925018,452.798798 310.353027,451.476013 312.579163,449.413879 
	C312.852936,446.722412 313.591034,442.775299 306.926056,444.310181 
	C311.494812,439.100861 315.719269,439.789124 319.401886,446.255188 
	C319.032623,448.191406 318.154633,449.639282 318.125671,451.103973 
	C318.004974,457.203888 318.139893,463.308899 318.181030,469.411987 
z"/>
<path fill="#3A3B97" opacity="1.000000" stroke="none" 
	d="
M268.076996,395.988525 
	C263.222473,400.510376 257.781250,401.291534 251.434402,399.305908 
	C248.987305,398.540314 246.012238,399.462311 243.315125,399.613312 
	C243.408371,394.596375 247.363083,390.607910 253.342804,390.993835 
	C258.330200,391.315735 263.260559,392.522125 268.333069,393.355988 
	C268.159698,393.923431 267.924286,394.693939 267.857239,395.751831 
	C268.025604,396.039154 268.061829,396.007385 268.076996,395.988525 
z"/>
<path fill="#7374B5" opacity="1.000000" stroke="none" 
	d="
M318.393738,469.672089 
	C318.139893,463.308899 318.004974,457.203888 318.125671,451.103973 
	C318.154633,449.639282 319.032623,448.191406 319.729065,446.414307 
	C321.332733,446.026550 322.727509,445.960236 324.437927,445.921509 
	C326.367065,445.949097 327.980530,445.949097 329.593964,445.949097 
	C329.696045,446.427856 329.798126,446.906647 329.900177,447.385406 
	C328.742798,447.594421 327.585388,447.803436 325.735931,448.166626 
	C324.363647,450.879852 323.683411,453.438904 323.003174,455.997925 
	C322.830322,458.862610 322.657471,461.727295 322.771912,464.820465 
	C322.964844,466.830200 322.870483,468.611450 322.734314,471.181335 
	C321.128967,470.695526 319.867706,470.313843 318.393738,469.672089 
z"/>
<path fill="#7677B7" opacity="1.000000" stroke="none" 
	d="
M510.102295,189.177643 
	C516.849854,195.867432 521.104248,203.940445 522.923035,213.167068 
	C522.550171,213.350876 522.177246,213.534683 521.804382,213.718491 
	C517.508606,206.114441 513.212769,198.510376 508.917023,190.550156 
	C509.259399,189.947632 509.601715,189.701279 510.102295,189.177643 
z"/>
<path fill="#7272B6" opacity="1.000000" stroke="none" 
	d="
M56.786533,219.066345 
	C53.827374,228.659119 50.580051,238.127090 47.332726,247.595047 
	C46.982151,247.604156 46.631573,247.613281 46.280998,247.622391 
	C46.280998,246.231918 46.280998,244.841461 46.939621,243.084473 
	C49.394188,236.175064 51.190125,229.632202 52.986061,223.089325 
	C53.696846,221.417847 54.407631,219.746384 55.458557,217.999268 
	C56.031925,218.262924 56.265148,218.602234 56.786533,219.066345 
z"/>
<path fill="#7E80BA" opacity="1.000000" stroke="none" 
	d="
M520.858765,161.994385 
	C522.386597,166.408600 523.625305,170.806686 524.863953,175.204773 
	C524.100891,175.397629 523.337830,175.590500 522.574768,175.783371 
	C521.688477,171.472580 520.802185,167.161789 519.953613,162.431458 
	C520.184082,162.000717 520.376831,161.989487 520.858765,161.994385 
z"/>
<path fill="#B4B5D8" opacity="1.000000" stroke="none" 
	d="
M44.773117,163.046082 
	C44.284992,166.649429 43.496368,170.247482 42.707745,173.845535 
	C42.202003,173.780624 41.696262,173.715729 41.190521,173.650833 
	C41.705158,170.278641 42.219795,166.906464 43.009430,163.210815 
	C43.680489,162.938507 44.076553,162.989655 44.773117,163.046082 
z"/>
<path fill="#989AC9" opacity="1.000000" stroke="none" 
	d="
M101.459183,353.921814 
	C102.424866,356.521027 103.073463,359.204437 103.722069,361.887878 
	C103.418610,362.038818 103.115150,362.189758 102.811691,362.340698 
	C101.805389,359.863159 100.799088,357.385620 99.826294,354.530579 
	C100.287224,354.104095 100.714661,354.055054 101.459183,353.921814 
z"/>
<path fill="#8384BE" opacity="1.000000" stroke="none" 
	d="
M464.740356,355.217133 
	C464.272064,357.918488 463.402893,360.627655 462.533752,363.336823 
	C462.094330,363.212555 461.654938,363.088287 461.215515,362.964020 
	C461.849884,360.510254 462.484253,358.056488 463.334015,355.345245 
	C463.812744,355.133484 464.076111,355.179199 464.740356,355.217133 
z"/>
<path fill="#989AC9" opacity="1.000000" stroke="none" 
	d="
M97.337631,343.832886 
	C96.938881,343.453644 96.724304,342.909332 96.678917,342.184784 
	C97.072678,342.558960 97.297249,343.113373 97.337631,343.832886 
z"/>
<path fill="#989AC9" opacity="1.000000" stroke="none" 
	d="
M96.338806,337.047119 
	C95.946457,336.666412 95.716866,335.994873 95.653976,335.164246 
	C96.047638,335.588837 96.274597,336.172577 96.338806,337.047119 
z"/>
<path fill="#FEFEFE" opacity="1.000000" stroke="none" 
	d="
M52.655266,223.130035 
	C51.190125,229.632202 49.394188,236.175064 47.240494,242.871490 
	C47.100368,238.914642 47.317993,234.804245 48.035137,230.294327 
	C48.583992,229.572769 48.633324,229.250748 48.682655,228.928711 
	C49.033188,228.460144 49.383728,227.991577 50.150459,227.225708 
	C50.620018,226.596893 50.673382,226.265396 50.726746,225.933914 
	C51.259319,225.012848 51.791893,224.091797 52.655266,223.130035 
z"/>
<path fill="#9E9ECC" opacity="1.000000" stroke="none" 
	d="
M48.128685,198.338776 
	C48.691608,199.267670 49.724514,200.726166 49.373215,201.668839 
	C48.241467,204.705750 46.599537,207.552536 45.141380,210.498749 
	C43.086491,208.070374 43.086491,208.070374 48.128685,198.338776 
z"/>
<path fill="#FEFEFE" opacity="1.000000" stroke="none" 
	d="
M55.179337,189.411270 
	C55.244194,190.904907 54.807041,192.476990 54.369892,194.049057 
	C53.742790,193.739349 53.115688,193.429642 52.488590,193.119934 
	C53.218166,191.909866 53.947746,190.699783 55.179337,189.411270 
z"/>
<path fill="#FEFEFE" opacity="1.000000" stroke="none" 
	d="
M50.571808,194.193512 
	C51.512989,194.087753 52.058910,194.221008 52.604839,194.354248 
	C52.162712,194.868896 51.720581,195.383545 51.278446,195.898193 
	C50.911144,195.409637 50.543846,194.921066 50.571808,194.193512 
z"/>
<path fill="#FEFEFE" opacity="1.000000" stroke="none" 
	d="
M70.196777,149.186447 
	C70.803535,149.344711 71.027046,149.815765 71.250565,150.286835 
	C70.833557,150.410873 70.416557,150.534912 69.999550,150.658951 
	C69.937546,150.272385 69.875542,149.885818 70.196777,149.186447 
z"/>
<path fill="#7272B6" opacity="1.000000" stroke="none" 
	d="
M50.526672,226.045334 
	C50.673382,226.265396 50.620018,226.596893 50.276455,226.952332 
	C49.957233,226.643921 50.070683,226.370728 50.526672,226.045334 
z"/>
<path fill="#7272B6" opacity="1.000000" stroke="none" 
	d="
M48.488136,229.037979 
	C48.633324,229.250748 48.583992,229.572769 48.254852,229.925507 
	C47.954990,229.636826 48.061176,229.367172 48.488136,229.037979 
z"/>
<path fill="#FEFEFE" opacity="1.000000" stroke="none" 
	d="
M514.040405,232.758057 
	C513.115784,229.719193 512.404724,227.029282 511.337555,222.992355 
	C518.084778,229.203476 519.307739,235.533539 517.580811,243.917816 
	C516.255066,239.609772 515.254456,236.358383 514.040405,232.758057 
z"/>
<path fill="#FEFEFE" opacity="1.000000" stroke="none" 
	d="
M508.250000,218.750000 
	C508.299896,218.466660 508.599762,218.433304 508.899658,218.399933 
	C508.766418,218.599945 508.633209,218.799973 508.250000,218.750000 
z"/>
<path fill="#F5F5FA" opacity="1.000000" stroke="none" 
	d="
M212.478928,84.590439 
	C215.848114,75.052628 221.011429,67.127808 227.507111,59.886784 
	C230.291626,62.658340 232.590607,64.946617 235.161835,67.505867 
	C225.575470,77.849083 220.439056,90.166626 219.494278,104.526863 
	C216.057556,104.526863 212.837982,104.526863 209.036835,104.526863 
	C208.380646,97.770409 210.251556,91.348076 212.478928,84.590439 
z"/>
<path fill="#F8F8FB" opacity="1.000000" stroke="none" 
	d="
M325.445679,64.738205 
	C327.147705,62.856564 328.570129,61.233585 330.471008,59.064705 
	C342.794281,71.862015 349.441010,86.311974 350.656860,103.867615 
	C347.095306,103.867615 343.741058,103.867615 340.131561,103.867615 
	C339.478607,100.312630 338.995544,96.548027 338.074554,92.893791 
	C335.847290,84.056412 332.196777,75.931374 325.237701,69.704651 
	C323.386993,68.048721 322.925385,66.602791 325.445679,64.738205 
z"/>
<path fill="#F7F7FB" opacity="1.000000" stroke="none" 
	d="
M345.502869,132.409424 
	C341.203278,139.647186 337.055603,146.533768 332.241852,154.526276 
	C329.106812,150.737320 327.029541,148.226776 324.628967,145.325485 
	C333.544189,135.406921 338.995758,123.364601 339.866547,109.145538 
	C343.503967,109.145538 346.887665,109.145538 351.638733,109.145538 
	C349.548004,117.151047 347.601410,124.604645 345.502869,132.409424 
z"/>
<path fill="#F9F9FC" opacity="1.000000" stroke="none" 
	d="
M273.461243,164.522980 
	C276.569550,164.505997 277.242676,165.984497 277.066986,168.385986 
	C276.913452,170.484131 277.034973,172.602417 277.034973,174.905182 
	C259.233124,174.358856 244.347809,168.154724 231.125992,157.057831 
	C233.652298,154.397934 235.867249,152.065842 238.399933,149.399231 
	C248.499237,158.022247 259.920288,163.256760 273.461243,164.522980 
z"/>
<path fill="#F8F8FB" opacity="1.000000" stroke="none" 
	d="
M260.843567,40.734352 
	C266.091919,39.715847 270.942261,38.801064 276.276855,37.794960 
	C276.276855,41.598007 276.276855,44.663868 276.276855,48.262405 
	C273.332214,48.777916 269.937958,48.832748 266.978912,49.995338 
	C259.319641,53.004635 251.553528,55.967770 244.398331,59.966194 
	C238.152390,63.456520 238.507874,64.054573 233.138794,59.038925 
	C232.538437,58.478085 231.681015,58.192451 230.404205,57.477688 
	C239.608566,48.887070 249.398209,43.749065 260.843567,40.734352 
z"/>
<path fill="#F8F8FB" opacity="1.000000" stroke="none" 
	d="
M310.284454,168.365402 
	C301.234924,172.474869 292.151306,174.813080 282.153748,175.101120 
	C282.153748,171.709991 282.153748,168.503952 282.153748,164.995926 
	C287.269409,164.589493 292.120605,162.617264 297.539673,165.484161 
	C299.222473,166.374420 303.440002,163.682037 305.825195,161.785004 
	C310.835693,157.800018 315.400909,153.255173 320.522827,148.600327 
	C323.444824,151.312775 325.927795,153.617691 329.369598,156.812698 
	C322.669983,160.878174 316.645508,164.533951 310.284454,168.365402 
z"/>
<path fill="#F5F5FA" opacity="1.000000" stroke="none" 
	d="
M302.903809,41.971268 
	C312.345825,45.205284 320.477142,49.888115 327.633240,56.474339 
	C325.442261,58.538982 323.404083,60.459606 320.914398,62.805737 
	C319.853973,59.485729 315.479706,58.602676 316.481232,54.373493 
	C316.530121,54.167095 313.798828,52.902931 313.643555,53.106884 
	C310.874847,56.743649 307.551086,55.003284 304.471985,54.078880 
	C298.014587,52.140224 291.626312,49.971218 286.139862,48.197517 
	C288.301361,47.834755 291.667725,47.269783 296.099152,46.526066 
	C290.761047,41.549397 286.392029,45.595825 281.902191,45.855961 
	C281.902191,43.306702 281.902191,40.899471 281.902191,37.488297 
	C289.019348,39.005527 295.767883,40.444172 302.903809,41.971268 
z"/>
<path fill="#F6F6FA" opacity="1.000000" stroke="none" 
	d="
M229.574844,82.703476 
	C232.398880,78.399208 235.056503,74.431351 238.095200,69.894585 
	C240.999420,72.539482 243.260605,74.598770 245.888580,76.992081 
	C238.792526,85.016914 234.812515,94.148376 234.096237,104.677200 
	C230.534561,104.677200 227.427109,104.677200 223.894318,104.677200 
	C224.047058,96.852020 226.232895,89.828400 229.574844,82.703476 
z"/>
<path fill="#F8F8FB" opacity="1.000000" stroke="none" 
	d="
M243.583496,65.479355 
	C253.323563,57.647293 264.204651,53.883797 276.572083,52.945789 
	C276.572083,56.314407 276.572083,59.248348 276.572083,61.266525 
	C267.079773,65.068451 257.843231,68.767937 248.606674,72.467415 
	C248.685486,72.925171 248.764313,73.382919 248.843124,73.840668 
	C246.907913,72.063873 244.866959,70.382553 243.114182,68.441048 
	C242.692520,67.973969 243.226669,66.643967 243.583496,65.479355 
z"/>
<path fill="#F6F6FA" opacity="1.000000" stroke="none" 
	d="
M319.715881,127.631012 
	C321.696564,124.043633 323.527527,120.793991 325.340454,117.534309 
	C325.491455,117.262840 325.579865,116.926849 325.596985,116.615311 
	C325.733948,114.121788 325.235138,109.751144 326.078949,109.476028 
	C328.871155,108.565651 332.144989,109.132515 335.571136,109.132515 
	C334.733459,121.883339 330.351318,132.766174 322.198364,141.675110 
	C319.294189,139.668610 316.725281,137.893768 314.043121,136.040665 
	C315.866486,133.372665 317.713989,130.669403 319.715881,127.631012 
z"/>
<path fill="#F2F3F8" opacity="1.000000" stroke="none" 
	d="
M335.231201,100.555740 
	C335.226440,101.896538 335.247284,103.628014 335.048370,103.653641 
	C332.138672,104.028465 329.113800,104.638588 326.315277,104.119789 
	C325.367096,103.944008 324.823120,100.816284 324.355164,98.971397 
	C323.120117,94.102257 322.112762,89.173981 320.803558,84.326286 
	C320.557465,83.415176 319.460754,82.529518 318.539886,82.038933 
	C313.529846,79.369934 311.595856,74.724037 309.803223,69.955292 
	C310.156586,69.570786 310.509979,69.186279 310.863342,68.801773 
	C311.908569,69.560936 313.720367,70.193642 313.869965,71.100555 
	C314.630463,75.710762 318.391693,77.518089 321.640625,79.434090 
	C329.670380,84.169441 334.923645,90.454514 335.231201,100.555740 
z"/>
<path fill="#F9F9FC" opacity="1.000000" stroke="none" 
	d="
M263.658142,148.502136 
	C267.857452,149.607468 271.704071,150.532211 275.942688,151.551208 
	C275.942688,154.060654 275.942688,156.941681 275.942688,160.236862 
	C263.544861,159.840637 253.080170,155.244385 243.226303,147.891647 
	C246.910706,146.588821 250.205475,144.444824 253.421555,144.556992 
	C256.755920,144.673294 260.014008,146.975418 263.658142,148.502136 
z"/>
<path fill="#F7F7FB" opacity="1.000000" stroke="none" 
	d="
M282.138245,62.510448 
	C281.832886,59.358479 281.832886,56.550201 281.832886,53.743656 
	C293.676331,52.820366 308.999512,57.155811 307.823151,68.232025 
	C306.571777,67.524834 305.464752,66.899223 304.310638,66.247009 
	C304.020844,67.162224 303.747559,68.025330 303.712799,68.135132 
	C296.437012,66.328613 289.440308,64.591377 282.138245,62.510448 
z"/>
<path fill="#F2F3F8" opacity="1.000000" stroke="none" 
	d="
M277.483398,118.505966 
	C276.179077,118.142303 275.241577,117.877991 274.522186,117.675171 
	C276.051147,115.160019 277.531525,112.724777 279.589233,109.339882 
	C276.961578,109.071899 275.549347,109.116249 274.256439,108.745110 
	C272.853027,108.342247 271.045074,107.881004 270.376923,106.831749 
	C269.804535,105.932846 270.186798,103.921989 270.848694,102.827209 
	C273.952057,97.694145 280.932770,96.027908 283.753998,100.228447 
	C286.011505,103.589684 286.413727,108.198006 287.622375,112.257919 
	C287.658386,112.378990 287.546844,112.626541 287.431458,112.698128 
	C284.243439,114.676483 281.046051,116.639641 277.483398,118.505966 
z"/>
<path fill="#F8F8FB" opacity="1.000000" stroke="none" 
	d="
M295.554718,70.259193 
	C299.462891,72.409515 303.014832,74.408829 307.261047,76.798904 
	C305.362030,78.441551 304.061462,79.245583 303.193451,80.380440 
	C301.001434,83.246323 299.087006,83.485085 295.732178,81.546600 
	C291.654419,79.190430 286.854004,78.084999 282.002380,76.304985 
	C282.002380,73.708542 282.002380,70.623726 282.002380,66.637444 
	C286.702087,67.873520 290.950317,68.990845 295.554718,70.259193 
z"/>
<path fill="#F7F7FB" opacity="1.000000" stroke="none" 
	d="
M269.495087,68.211563 
	C272.001923,67.802887 274.113617,67.498703 276.589264,67.142082 
	C276.589264,70.424332 276.589264,73.465378 276.589264,75.846558 
	C271.306549,78.260750 266.339905,80.744980 261.180847,82.728783 
	C259.976471,83.191910 258.016235,82.162415 256.588135,81.450058 
	C254.839371,80.577721 253.284531,79.316551 251.645844,78.223503 
	C251.849701,77.456436 252.053558,76.689377 252.257416,75.922318 
	C257.871582,73.386894 263.485748,70.851471 269.495087,68.211563 
z"/>
<path fill="#F5F5FA" opacity="1.000000" stroke="none" 
	d="
M222.396088,135.461548 
	C226.863403,139.037354 231.041306,142.380386 235.048508,145.586838 
	C232.427185,148.453964 230.232071,150.854935 227.110229,154.269516 
	C222.207321,146.673187 217.673019,139.647964 213.138733,132.622757 
	C213.557159,132.256348 213.975601,131.889938 214.394028,131.523514 
	C216.964920,132.758606 219.535797,133.993713 222.396088,135.461548 
z"/>
<path fill="#ECECF5" opacity="1.000000" stroke="none" 
	d="
M243.480713,117.509888 
	C241.051453,114.755615 241.286942,112.764687 243.741913,110.440117 
	C245.240799,109.020866 245.901627,106.716553 247.410080,103.943474 
	C247.800995,104.239082 249.486511,104.856499 249.681564,105.786514 
	C250.228958,108.396584 250.636017,111.414787 246.860733,111.050293 
	C249.783585,116.275856 252.612183,121.332901 255.600800,126.676018 
	C253.298691,129.057007 251.024750,131.408890 248.082504,134.451965 
	C246.456161,128.264023 245.086075,123.051094 243.480713,117.509888 
z"/>
<path fill="#F2F3F8" opacity="1.000000" stroke="none" 
	d="
M242.626038,99.974983 
	C241.831741,101.933014 241.202484,103.540802 240.573227,105.148598 
	C239.979935,104.912048 239.386642,104.675507 238.793350,104.438965 
	C238.672699,95.194984 242.833115,87.661316 248.838043,80.169571 
	C251.505142,82.515587 253.808655,84.541786 256.427948,86.845764 
	C251.687714,91.287796 247.239395,95.456276 242.626038,99.974983 
z"/>
<path fill="#F2F3F8" opacity="1.000000" stroke="none" 
	d="
M220.047684,113.896431 
	C220.368332,116.115303 220.665192,117.907990 220.923706,119.469109 
	C217.769958,121.689812 214.747055,123.818375 211.512756,126.095795 
	C210.575226,121.519669 209.398376,115.775406 208.109497,109.484360 
	C212.274094,109.484360 215.498703,109.484360 219.236404,109.484360 
	C219.468567,110.659447 219.746216,112.064842 220.047684,113.896431 
z"/>
<path fill="#F7F7FB" opacity="1.000000" stroke="none" 
	d="
M255.058701,133.165924 
	C256.134277,131.647247 256.953308,130.393890 257.594208,129.413101 
	C262.389008,132.036636 266.118195,134.077087 269.652710,136.011047 
	C269.431305,138.870880 269.203552,141.813324 268.890045,145.863419 
	C264.154053,143.331131 259.112274,140.782913 254.224899,137.966766 
	C251.291962,136.276764 253.399048,134.799149 255.058701,133.165924 
z"/>
<path fill="#F4F4F9" opacity="1.000000" stroke="none" 
	d="
M269.107788,120.144615 
	C272.025391,121.293198 274.572845,122.437096 278.087006,124.015068 
	C277.260559,126.327606 276.300934,129.012817 275.030701,132.567108 
	C270.482208,130.508713 266.579468,128.742554 261.674713,126.522934 
	C264.676178,123.810410 266.706940,121.975174 269.107788,120.144615 
z"/>
<path fill="#EFEFF7" opacity="1.000000" stroke="none" 
	d="
M290.878601,93.156204 
	C289.215118,93.431183 287.791992,93.431183 286.088440,93.431183 
	C287.534271,91.076653 288.577698,89.377434 289.877655,87.260452 
	C286.880798,87.650787 284.626129,87.944450 282.371521,88.238113 
	C282.116272,86.208481 281.861023,84.178848 281.420898,80.679031 
	C286.345642,82.456665 290.257141,83.544769 293.781189,85.377708 
	C294.618683,85.813316 294.557373,88.842072 294.146881,90.487831 
	C293.900452,91.475899 292.178040,92.095833 290.878601,93.156204 
z"/>
<path fill="#EEEEF6" opacity="1.000000" stroke="none" 
	d="
M311.970154,92.167122 
	C308.886749,90.271111 305.988342,88.720604 302.396423,86.799080 
	C304.488037,84.739746 306.868744,82.395767 310.007812,79.305145 
	C313.308136,84.945251 316.081970,89.685593 319.363464,95.293503 
	C316.515961,94.194962 314.335571,93.353790 311.970154,92.167122 
z"/>
<path fill="#F6F6FA" opacity="1.000000" stroke="none" 
	d="
M272.202271,90.466354 
	C267.670746,93.912971 265.279266,90.424271 261.129669,87.333664 
	C266.733307,84.931152 271.346344,82.953362 276.824280,80.604744 
	C276.824280,84.190750 276.824280,86.240547 276.824280,87.860306 
	C275.182159,88.696266 273.776306,89.411949 272.202271,90.466354 
z"/>
<path fill="#EFEFF7" opacity="1.000000" stroke="none" 
	d="
M318.238037,120.564575 
	C316.109528,124.674042 314.075226,128.369995 311.696808,132.691116 
	C309.981049,131.063538 308.195557,130.164841 308.126923,129.149994 
	C307.947968,126.504608 307.564423,122.941650 309.019043,121.335396 
	C311.202240,118.924644 314.833618,117.372787 318.238037,120.564575 
z"/>
<path fill="#E9E9F3" opacity="1.000000" stroke="none" 
	d="
M233.810608,109.770935 
	C233.290817,111.141930 232.653107,112.179176 231.899796,113.124268 
	C229.957733,115.560661 227.964539,117.956291 225.708206,120.714882 
	C225.069000,117.456215 224.330978,113.693756 223.487808,109.395218 
	C227.253998,109.395218 230.447006,109.395218 233.810608,109.770935 
z"/>
<path fill="#E9E9F3" opacity="1.000000" stroke="none" 
	d="
M288.418091,134.426804 
	C284.938965,133.948730 281.784271,133.265823 278.584381,132.573120 
	C280.582062,129.958466 282.898041,128.835052 286.703217,129.978424 
	C288.939880,130.650497 291.729706,129.481567 294.831543,130.071167 
	C292.801880,131.454773 290.772217,132.838364 288.418091,134.426804 
z"/>
<path fill="#E4E5F1" opacity="1.000000" stroke="none" 
	d="
M281.675934,156.853821 
	C282.303986,155.036377 282.936432,153.645462 283.568878,152.254532 
	C284.320801,153.396271 285.081757,154.532196 285.822357,155.681259 
	C286.680054,157.012024 287.519806,158.354370 288.457855,159.834473 
	C286.417236,160.091003 284.470764,160.335709 282.213287,160.619507 
	C282.024323,159.435608 281.852325,158.357986 281.675934,156.853821 
z"/>
<path fill="#E4E5F1" opacity="1.000000" stroke="none" 
	d="
M313.507568,149.551788 
	C310.804840,148.831833 310.804840,148.831833 312.876129,145.031235 
	C311.579590,143.653717 310.216461,142.205505 308.853333,140.757278 
	C309.314728,140.279007 309.776154,139.800735 310.237549,139.322449 
	C312.505737,141.583817 314.773926,143.845169 317.323456,146.387039 
	C315.807129,147.664902 314.819305,148.497391 313.507568,149.551788 
z"/>
<path fill="#FEFEFE" opacity="1.000000" stroke="none" 
	d="
M254.720703,439.078430 
	C254.980850,439.623047 254.895752,440.270996 254.388901,440.988525 
	C254.103256,440.432678 254.239365,439.807190 254.720703,439.078430 
z"/>
<path fill="#E4E5F1" opacity="1.000000" stroke="none" 
	d="
M323.438263,456.050171 
	C323.683411,453.438904 324.363647,450.879852 325.375946,448.192444 
	C327.052277,450.300385 328.396515,452.536774 330.310242,455.720612 
	C327.066711,455.912994 325.470001,456.007721 323.438263,456.050171 
z"/>
</svg>